<?xml version="1.0" encoding="UTF-8" standalone="no"?>
<!-- Created with Inkscape (http://www.inkscape.org/) -->

<svg
   xmlns:dc="http://purl.org/dc/elements/1.1/"
   xmlns:cc="http://creativecommons.org/ns#"
   xmlns:rdf="http://www.w3.org/1999/02/22-rdf-syntax-ns#"
   xmlns:svg="http://www.w3.org/2000/svg"
   xmlns="http://www.w3.org/2000/svg"
   xmlns:sodipodi="http://sodipodi.sourceforge.net/DTD/sodipodi-0.dtd"
   xmlns:inkscape="http://www.inkscape.org/namespaces/inkscape"
   version="1.1"
   id="svg52"
   width="200"
   height="150"
   viewBox="0 0 800 504"
   sodipodi:docname="logo.svg"
   inkscape:version="0.92.0 r15299">
  <metadata
     id="metadata58">
    <rdf:RDF>
      <cc:Work
         rdf:about="">
        <dc:format>image/svg+xml</dc:format>
        <dc:type
           rdf:resource="http://purl.org/dc/dcmitype/StillImage" />
        <dc:title></dc:title>
      </cc:Work>
    </rdf:RDF>
  </metadata>
  <defs
     id="defs56" />
  <sodipodi:namedview
     pagecolor="#ffffff"
     bordercolor="#666666"
     borderopacity="1"
     objecttolerance="10"
     gridtolerance="10"
     guidetolerance="10"
     inkscape:pageopacity="0"
     inkscape:pageshadow="2"
     inkscape:window-width="1366"
     inkscape:window-height="705"
     id="namedview54"
     showgrid="false"
     inkscape:zoom="1.0040916"
     inkscape:cx="400"
     inkscape:cy="252"
     inkscape:window-x="-8"
     inkscape:window-y="-8"
     inkscape:window-maximized="1"
     inkscape:current-layer="svg52" />
  <path
     style="fill:#2f3f60;stroke-width:1.33333337"
     d="m 232.53293,462.97959 c -5.3498,-3.57216 -5.86593,-14.0602 -1.18657,-24.11199 1.82617,-3.92281 3.32031,-7.37281 3.32031,-7.66667 0,-0.29384 -2.07192,-0.53426 -4.60428,-0.53426 -4.17544,0 -4.85168,0.55933 -7.26075,6.0054 -2.87108,6.49056 -7.63981,9.40928 -13.12429,8.03276 -3.54023,-0.88854 -8.33164,-7.95886 -8.33903,-12.30524 -0.003,-1.61356 -1.05499,-3.54532 -2.33832,-4.29279 -1.98609,-1.1568 -2.01795,-1.36508 -0.21403,-1.39959 1.16563,-0.0223 2.8034,-1.54192 3.63948,-3.37694 2.14855,-4.71554 9.26422,-8.65808 15.57455,-8.62934 6.19332,0.0283 14.89188,3.6769 18.53899,7.77634 l 2.539,2.85388 7.43481,-6.99891 c 4.08915,-3.8494 7.27029,-7.74891 7.06923,-8.66557 C 253.38095,408.75 253.84273,408 254.60821,408 c 0.76548,0 1.41087,0.75 1.43419,1.66667 0.0261,1.02502 0.71848,0.77634 1.79851,-0.64595 0.96585,-1.27193 2.08988,-1.97883 2.49784,-1.57087 0.40794,0.40796 3.64862,-0.27384 7.20149,-1.51509 12.82697,-4.48132 41.67603,-2.20073 54.22051,4.28627 2.7888,1.44214 4.28561,1.59928 5.32578,0.5591 3.39434,-3.39433 7.91304,-1.4292 16.23871,7.06199 6.18499,6.30796 10.36884,9.28601 16.17551,11.51368 8.62058,3.30721 21.18909,3.94651 27.68417,1.40816 5.86709,-2.29292 5.83012,-0.5596 -0.0408,1.91288 -13.44852,5.66368 -26.20271,7.21772 -37.62384,4.58429 -5.13336,-1.18362 -8.50137,-2.61637 -19.65416,-8.3608 -1.54029,-0.79336 -3.34029,-2.67048 -4,-4.1714 -0.69995,-1.59248 -3.97577,-3.71237 -7.86612,-5.09042 -13.701,-4.85322 -56.25309,-0.20627 -61.66667,6.73437 -0.91666,1.17524 -1.66666,4.49271 -1.66666,7.37216 0,4.30369 0.92118,6.15653 5.17646,10.41183 6.16498,6.16497 10.25531,6.60436 16.05456,1.72461 4.74799,-3.99517 5.48758,-9.97704 1.8718,-15.13929 -2.37714,-3.39384 -0.7263,-2.97 3.89718,1.0006 3.50488,3.00996 3.05345,11.09078 -0.85516,15.30826 -4.80475,5.1844 -11.44384,5.9123 -19.11214,2.09539 -7.3628,-3.66484 -11.31618,-9.58809 -11.51725,-17.25597 -0.1012,-3.85859 -0.62364,-5.08386 -1.95068,-4.57462 -0.99688,0.38254 -3.22064,1.04894 -4.94168,1.4809 -2.56221,0.64308 -2.93216,1.30637 -2.0418,3.66097 4.00193,10.5834 2.50781,25.69432 -2.91621,29.49347 -3.3078,2.31686 -3.75134,2.39553 -5.79882,1.0284 z m 6.30382,-6.51923 c 2.30604,-2.78036 2.42037,-21.06991 0.14592,-23.34436 -2.5931,-2.59309 -10.18711,14.93273 -9.06414,20.91864 0.69688,3.71469 1.48482,4.63203 3.97863,4.63203 1.71031,0 3.93312,-0.99284 4.93959,-2.20631 z m -20.46676,-17.20263 c 1.68733,-1.18185 2.96334,-3.47838 2.96334,-5.33333 0,-2.97213 -0.52602,-3.25773 -6,-3.25773 -5.26496,0 -6,0.3539 -6,2.88889 0,3.33235 -1.35982,2.542 -1.89268,-1.10005 -0.19758,-1.35054 -1.35257,-2.64951 -2.56662,-2.8866 -3.41038,-0.66606 -2.73871,4.68762 1.06537,8.49169 3.75789,3.75791 8.16819,4.18264 12.43059,1.19713 z m 1.30881,-11.89734 c 3.89915,1.56013 6.90048,1.82585 11.64276,1.0308 l 6.38936,-1.07119 -3.61947,-4.30148 c -7.16294,-8.51268 -20.99536,-8.54192 -28.13288,-0.0595 -3.24689,3.85872 -3.35344,4.3178 -1.17916,5.0805 1.31466,0.46116 4.0228,0.024 6.01812,-0.97135 3.11056,-1.55176 4.37694,-1.51009 8.88127,0.29219 z m -2.70417,1.04896 c -1.2973,-0.33806 -3.0973,-0.31583 -4,0.0495 -0.90271,0.36524 0.1587,0.64183 2.3587,0.61466 2.2,-0.0272 2.93859,-0.326 1.6413,-0.66406 z m 38.24281,-8.58508 c 7.86167,-8.09331 13.91947,-9.82976 34.11589,-9.77926 14.94656,0.0373 19.35498,0.52956 25.98751,2.90139 8.40724,3.00645 11.14649,2.82288 6.67707,-0.44747 -6.05708,-4.43205 -16.9694,-6.48908 -33.99791,-6.40878 -13.98981,0.066 -17.88765,0.55838 -24.26884,3.06589 -6.98067,2.74308 -21.06449,13.57968 -21.06449,16.20777 0,2.32168 8.60296,-1.47542 12.55077,-5.53954 z M 274,417.80937 c 12.43165,-3.0177 36.55979,-3.14888 44.33333,-0.24101 3.11667,1.16585 5.66667,1.60719 5.66667,0.98073 0,-0.62645 -4.35,-2.50628 -9.66667,-4.17738 -18.65152,-5.86244 -45.2794,-3.57003 -52.50338,4.52008 -2.44824,2.74177 -2.44495,2.78032 0.17005,1.98957 1.46667,-0.44351 6.86667,-1.82591 12,-3.07199 z m 286.7594,43.07124 c -4.02481,-4.02482 -5.31307,-11.94996 -3.51957,-21.6519 0.78476,-4.24516 1.42684,-8.14958 1.42684,-8.67648 0,-0.69584 -7.02286,-3.88556 -8.55487,-3.88556 -0.0863,0 -0.21887,2.36113 -0.29453,5.24696 -0.20047,7.64556 -4.16068,13.57137 -11.51664,17.23281 -7.63048,3.79809 -13.63988,3.15068 -18.81786,-2.02731 -4.21028,-4.21028 -4.80998,-12.2327 -1.14944,-15.37634 4.62348,-3.9706 6.27432,-4.39444 3.89718,-1.0006 -3.61578,5.16225 -2.87619,11.14412 1.8718,15.13929 5.79925,4.87975 9.88958,4.44036 16.05456,-1.72461 4.25528,-4.2553 5.17646,-6.10814 5.17646,-10.41183 0,-2.87945 -0.75,-6.19692 -1.66666,-7.37216 C 538.25309,419.43224 495.701,414.78529 482,419.63851 c -3.89035,1.37805 -7.16617,3.49794 -7.86612,5.09042 -0.65971,1.50092 -2.45971,3.37804 -4,4.1714 -11.15279,5.74443 -14.5208,7.17718 -19.65416,8.3608 -11.42113,2.63343 -24.17532,1.07939 -37.62384,-4.58429 -5.87092,-2.47248 -5.90789,-4.2058 -0.0408,-1.91288 6.49508,2.53835 19.06359,1.89905 27.68417,-1.40816 5.80667,-2.22767 9.99052,-5.20572 16.17551,-11.51368 8.32567,-8.49119 12.84437,-10.45632 16.23871,-7.06199 1.04017,1.04018 2.53698,0.88304 5.32578,-0.5591 12.50684,-6.46754 41.27536,-8.72736 54.22051,-4.25914 3.55287,1.22634 6.79355,1.89592 7.20149,1.48796 0.40796,-0.40796 1.53199,0.29894 2.49784,1.57087 1.08003,1.42229 1.77243,1.67097 1.79851,0.64595 C 543.98093,408.75 544.62631,408 545.39179,408 c 0.76548,0 1.22726,0.75 1.02618,1.66667 -0.20106,0.91666 2.98008,4.81617 7.06923,8.66557 l 7.43481,6.99891 2.539,-2.85388 c 3.64711,-4.09944 12.34567,-7.74812 18.53899,-7.77634 6.31033,-0.0288 13.426,3.9138 15.57455,8.62934 0.83608,1.83502 2.47385,3.35464 3.63948,3.37694 1.80392,0.0345 1.77206,0.24279 -0.21403,1.39959 -1.28333,0.74747 -2.33557,2.67923 -2.33832,4.29279 -0.008,4.34638 -4.7988,11.4167 -8.33903,12.30524 -5.48448,1.37652 -10.25321,-1.5422 -13.12429,-8.03276 -2.40907,-5.44607 -3.08531,-6.0054 -7.26075,-6.0054 -2.53236,0 -4.60428,0.24042 -4.60428,0.53426 0,0.29386 1.49414,3.74386 3.32031,7.66667 4.67936,10.05179 4.16323,20.53983 -1.18657,24.11199 -2.32831,1.55465 -3.38458,1.22412 -6.70767,-2.09898 z m 9.32207,-6.84597 c 0.67804,-3.61424 -0.0493,-6.59431 -3.3102,-13.56271 -5.23076,-11.17789 -7.30483,-10.0541 -7.38331,4.00048 -0.06,10.74807 1.57027,14.19426 6.71488,14.19426 2.49381,0 3.28175,-0.91734 3.97863,-4.63203 z M 594.0606,438.0606 c 3.80408,-3.80407 4.47575,-9.15775 1.06537,-8.49169 -1.21405,0.23709 -2.36904,1.53606 -2.56662,2.8866 -0.53286,3.64205 -1.89268,4.4324 -1.89268,1.10005 0,-2.53499 -0.73504,-2.88889 -6,-2.88889 -5.47398,0 -6,0.2856 -6,3.25773 0,3.75245 4.45352,7.40893 9.02394,7.40893 1.7035,0 4.56999,-1.47273 6.36999,-3.27273 z m -13.46976,-10.78152 c 4.22335,-1.76463 5.43273,-1.79672 8.578,-0.22765 2.01381,1.00461 4.73709,1.44928 6.05175,0.98812 2.17428,-0.7627 2.06773,-1.22178 -1.17916,-5.0805 -7.13978,-8.48513 -20.96199,-8.45266 -28.14711,0.0661 l -3.63368,4.30814 4.53635,0.82448 c 7.41982,1.34855 8.65093,1.27012 13.79385,-0.87873 z m 5.71712,1.13027 c -1.29729,-0.33806 -3.09729,-0.31583 -4,0.0495 -0.90271,0.36524 0.15871,0.64183 2.35871,0.61466 2.2,-0.0272 2.93858,-0.326 1.64129,-0.66406 z m -35.28911,-9.76838 C 540.30264,408.76269 532.29153,406.18584 512,406.09015 c -17.02851,-0.0803 -27.94083,1.97673 -33.99791,6.40878 -4.47361,3.27342 -1.72664,3.45319 6.67707,0.437 6.65383,-2.38814 10.99299,-2.87258 25.98751,-2.90137 20.21489,-0.0388 26.25713,1.6996 34.1509,9.82551 3.8237,3.93616 10.93739,7.243 12.51576,5.81804 0.36667,-0.33103 -2.47485,-3.49774 -6.31448,-7.03714 z m -12.97549,0.0736 c -7.16952,-7.92222 -33.9296,-10.14108 -52.37669,-4.34288 C 480.35,416.0428 476,417.92263 476,418.54908 c 0,0.62645 2.55,0.18013 5.66667,-0.9918 8.24292,-3.09952 33.18889,-2.65132 46.33333,0.83248 12.8692,3.41085 12.8352,3.40975 10.04336,0.32481 z M 176,458.66667 c -3.43857,-3.43858 -3.35896,-4.76224 0.51968,-8.64088 6.11736,-6.11738 14.38507,0.67574 9.63872,7.9196 -2.66809,4.07202 -6.53323,4.34645 -10.1584,0.72128 z m 437.8416,-0.72128 c -4.74635,-7.24386 3.52136,-14.03698 9.63872,-7.9196 3.87864,3.87864 3.95825,5.2023 0.51968,8.64088 -3.62517,3.62517 -7.49031,3.35074 -10.1584,-0.72128 z M 304,456 c 0,-0.73333 0.6,-1.33333 1.33333,-1.33333 0.73334,0 1.33334,0.6 1.33334,1.33333 0,0.73333 -0.6,1.33333 -1.33334,1.33333 C 304.6,457.33333 304,456.73333 304,456 Z m 189.33333,0 c 0,-0.73333 0.6,-1.33333 1.33334,-1.33333 0.73333,0 1.33333,0.6 1.33333,1.33333 0,0.73333 -0.6,1.33333 -1.33333,1.33333 -0.73334,0 -1.33334,-0.6 -1.33334,-1.33333 z m -198.66666,-1.33333 c 0,-0.73334 0.6,-1.33334 1.33333,-1.33334 0.73333,0 1.33333,0.6 1.33333,1.33334 0,0.73333 -0.6,1.33333 -1.33333,1.33333 -0.73333,0 -1.33333,-0.6 -1.33333,-1.33333 z m 14,0 c -0.45323,-0.73334 -0.18864,-1.33334 0.58797,-1.33334 0.77661,0 1.41203,0.6 1.41203,1.33334 0,0.73333 -0.26459,1.33333 -0.58798,1.33333 -0.32338,0 -0.9588,-0.6 -1.41202,-1.33333 z m 180.66666,0 c 0,-0.73334 0.63542,-1.33334 1.41203,-1.33334 0.77661,0 1.0412,0.6 0.58797,1.33334 C 490.88011,455.4 490.24469,456 489.92131,456 c -0.32339,0 -0.58798,-0.6 -0.58798,-1.33333 z m 13.33334,0 c 0,-0.73334 0.63541,-1.33334 1.41202,-1.33334 0.77662,0 1.0412,0.6 0.58798,1.33334 C 504.21344,455.4 503.57803,456 503.25464,456 c -0.32339,0 -0.58797,-0.6 -0.58797,-1.33333 z m -109.06667,-1.6 c -2.72161,-2.72162 -1.83132,-12.07888 1.8526,-19.47155 1.89892,-3.81065 4.02653,-6.92845 4.728,-6.92845 2.28831,0 7.79297,13.83485 7.80637,19.61976 0.009,4.20005 -0.6385,5.96844 -2.56598,7 -3.4825,1.86377 -9.85595,1.74528 -11.82099,-0.21976 z M 292,450.58797 c 0,-0.77661 0.6,-1.0412 1.33333,-0.58797 0.73334,0.45323 1.33334,1.08864 1.33334,1.41203 0,0.32338 -0.6,0.58797 -1.33334,0.58797 C 292.6,452 292,451.36459 292,450.58797 Z m 20,0 c 0,-0.77661 0.6,-1.0412 1.33333,-0.58797 0.73334,0.45323 1.33334,1.08864 1.33334,1.41203 0,0.32338 -0.6,0.58797 -1.33334,0.58797 C 312.6,452 312,451.36459 312,450.58797 Z m 174,0.0787 c 0.45323,-0.73334 1.08864,-1.33334 1.41203,-1.33334 0.32338,0 0.58797,0.6 0.58797,1.33334 C 488,451.4 487.36459,452 486.58797,452 c -0.77661,0 -1.0412,-0.6 -0.58797,-1.33333 z m 20,0 c 0.45323,-0.73334 1.08864,-1.33334 1.41203,-1.33334 0.32338,0 0.58797,0.6 0.58797,1.33334 C 508,451.4 507.36459,452 506.58797,452 c -0.77661,0 -1.0412,-0.6 -0.58797,-1.33333 z m -192,-4 c 0.45323,-0.73334 1.08864,-1.33334 1.41203,-1.33334 0.32338,0 0.58797,0.6 0.58797,1.33334 C 316,447.4 315.36459,448 314.58797,448 c -0.77661,0 -1.0412,-0.6 -0.58797,-1.33333 z m 170,-0.0787 c 0,-0.77661 0.6,-1.0412 1.33333,-0.58797 0.73334,0.45322 1.33334,1.08864 1.33334,1.41202 0,0.32339 -0.6,0.58798 -1.33334,0.58798 C 484.6,448.00003 484,447.36461 484,446.588 Z M 296,445.33333 C 296,444.6 296.6,444 297.33333,444 c 0.73334,0 1.33334,0.6 1.33334,1.33333 0,0.73334 -0.6,1.33334 -1.33334,1.33334 -0.73333,0 -1.33333,-0.6 -1.33333,-1.33334 z m 205.33333,0 c 0,-0.73333 0.6,-1.33333 1.33334,-1.33333 0.73333,0 1.33333,0.6 1.33333,1.33333 0,0.73334 -0.6,1.33334 -1.33333,1.33334 -0.73334,0 -1.33334,-0.6 -1.33334,-1.33334 z M 288,442.66667 c 0,-0.73334 0.6,-1.33334 1.33333,-1.33334 0.73334,0 1.33334,0.6 1.33334,1.33334 0,0.73333 -0.6,1.33333 -1.33334,1.33333 C 288.6,444 288,443.4 288,442.66667 Z m 26.66667,0 c 0,-0.73334 0.63541,-1.33334 1.41202,-1.33334 0.77662,0 1.0412,0.6 0.58798,1.33334 C 316.21344,443.4 315.57803,444 315.25464,444 c -0.32339,0 -0.58797,-0.6 -0.58797,-1.33333 z m 168.66666,0 c -0.45322,-0.73334 -0.18864,-1.33334 0.58798,-1.33334 0.77661,0 1.41202,0.6 1.41202,1.33334 0,0.73333 -0.26458,1.33333 -0.58797,1.33333 -0.32339,0 -0.9588,-0.6 -1.41203,-1.33333 z m 26,0 c 0,-0.73334 0.6,-1.33334 1.33334,-1.33334 0.73333,0 1.33333,0.6 1.33333,1.33334 C 512,443.4 511.4,444 510.66667,444 c -0.73334,0 -1.33334,-0.6 -1.33334,-1.33333 z m -326.6135,-1.93595 C 180.20923,437.70564 181.57816,434 185.20628,434 c 4.20588,0 6.5884,3.70092 4.21981,6.55491 -2.18406,2.63164 -4.61521,2.69537 -6.70626,0.17581 z m 427.85408,-0.17581 C 608.20532,437.70092 610.58777,434 614.79372,434 c 3.62812,0 4.99705,3.70564 2.48645,6.73072 -2.09105,2.51956 -4.5222,2.45583 -6.70626,-0.17581 z M 264.50827,437.94539 C 261.43751,433.2588 263.74412,428 268.87051,428 h 3.59433 l -3.06777,3.26549 c -3.45911,3.68204 -2.8817,7.40118 1.14906,7.40118 1.4464,0 3.00064,0.6 3.45387,1.33333 0.48024,0.77705 -0.8648,1.33333 -3.22391,1.33333 -2.8639,0 -4.69728,-0.99098 -6.26782,-3.38794 z M 526,440 c 0.45323,-0.73333 2.00747,-1.33333 3.45387,-1.33333 4.03076,0 4.60817,-3.71914 1.14906,-7.40118 L 527.53516,428 h 3.59433 c 2.52411,0 4.03916,0.97625 5.08823,3.27872 2.1732,4.76965 -1.50292,10.05461 -6.99381,10.05461 -2.35911,0 -3.70415,-0.55628 -3.22391,-1.33333 z m -229.33333,-4 c 0.45322,-0.73333 1.08864,-1.33333 1.41202,-1.33333 0.32339,0 0.58798,0.6 0.58798,1.33333 0,0.73333 -0.63542,1.33333 -1.41203,1.33333 -0.77661,0 -1.0412,-0.6 -0.58797,-1.33333 z m 204.66666,-0.0787 c 0,-0.77661 0.6,-1.0412 1.33334,-0.58797 C 503.4,435.78659 504,436.422 504,436.74539 c 0,0.32338 -0.6,0.58797 -1.33333,0.58797 -0.73334,0 -1.33334,-0.63541 -1.33334,-1.41203 z m -192,-1.25466 c 0,-0.73334 0.6,-1.33334 1.33334,-1.33334 0.73333,0 1.33333,0.6 1.33333,1.33334 C 312,435.4 311.4,436 310.66667,436 c -0.73334,0 -1.33334,-0.6 -1.33334,-1.33333 z m 178.66667,0 c 0,-0.73334 0.6,-1.33334 1.33333,-1.33334 0.73334,0 1.33334,0.6 1.33334,1.33334 0,0.73333 -0.6,1.33333 -1.33334,1.33333 C 488.6,436 488,435.4 488,434.66667 Z M 305.33333,433.3333 c 0,-0.73333 0.6,-1.33333 1.33334,-1.33333 0.73333,0 1.33333,0.6 1.33333,1.33333 0,0.73334 -0.6,1.33334 -1.33333,1.33334 -0.73334,0 -1.33334,-0.6 -1.33334,-1.33334 z m 186.66667,0 C 492,432.6 492.6,432 493.33333,432 c 0.73334,0 1.33334,0.6 1.33334,1.33333 0,0.73334 -0.6,1.33334 -1.33334,1.33334 -0.73333,0 -1.33333,-0.6 -1.33333,-1.33334 z m -298.66667,-2.1111 c 0,-2.35458 2.87035,-1.94452 3.69444,0.52777 0.29028,0.87083 -0.42221,1.58333 -1.58333,1.58333 -1.16111,0 -2.11111,-0.95 -2.11111,-2.1111 z m 409.62423,0.57177 c 0.69204,-2.07613 3.675,-2.43972 3.77953,-0.46067 0.0387,0.73334 -0.93036,1.54064 -2.15356,1.794 -1.39028,0.28799 -1.99981,-0.21184 -1.62597,-1.33333 z M 296,426.66667 c 0,-0.73334 0.6,-1.33334 1.33333,-1.33334 0.73334,0 1.33334,0.6 1.33334,1.33334 0,0.73333 -0.6,1.33333 -1.33334,1.33333 C 296.6,428 296,427.4 296,426.66667 Z m 205.33333,0 c 0,-0.73334 0.6,-1.33334 1.33334,-1.33334 0.73333,0 1.33333,0.6 1.33333,1.33334 C 504,427.4 503.4,428 502.66667,428 c -0.73334,0 -1.33334,-0.6 -1.33334,-1.33333 z m -313.68014,-3.93335 c -8.25434,-5.23473 -13.5279,-13.54735 -12.523,-19.73977 2.07593,-12.79243 14.82528,-18.55586 25.53077,-11.54135 4.33573,2.84088 4.52845,8.89683 0.37569,11.80553 -4.31712,3.02383 -11.27861,2.69387 -13.0514,-0.61862 -2.2521,-4.20811 -0.15761,-5.93254 3.28147,-2.7017 3.33489,3.13298 6.85445,2.54844 8.08972,-1.34356 2.56579,-8.08405 -8.51599,-10.97277 -15.459,-4.02974 -7.44788,7.44788 -3.96501,21.33804 7.15897,28.55096 3.01255,1.95338 4.87474,3.5516 4.13819,3.5516 -0.73655,0 -4.13019,-1.77 -7.54141,-3.93335 z m 180.89521,1.41208 c -9.7572,-5.94988 -12.87264,-15.45755 -6.44507,-19.66904 5.27191,-3.45429 9.6866,-1.20793 13.80892,7.02651 4.71728,9.42289 6.43827,11.1471 11.251,11.27209 l 4.17008,0.10827 -4,1.83156 c -5.70725,2.61332 -13.97665,2.36265 -18.78493,-0.56942 z m 44.11827,0.56941 -4,-1.83156 4.17008,-0.10826 c 4.81273,-0.12494 6.53372,-1.8492 11.251,-11.2721 4.12232,-8.23444 8.53701,-10.4808 13.80892,-7.0265 9.40654,6.1634 -2.37508,22.29385 -16.16379,22.13017 -2.78641,-0.0331 -6.86621,-0.88435 -9.06621,-1.89172 z m 196.83136,-1.9927 c 10.81714,-7.16499 14.00526,-20.75728 6.60453,-28.158 -6.94301,-6.94303 -18.02479,-4.05431 -15.459,4.02974 1.23527,3.892 4.75483,4.47654 8.08972,1.34356 3.43908,-3.23084 5.53357,-1.50641 3.28147,2.7017 C 608.76979,408.70239 596,404.53367 596,397.41108 c 0,-6.89839 10.5784,-11.15505 18.98883,-7.64096 5.55828,2.32241 8.82044,6.68804 9.88098,13.22343 1.0049,6.19242 -4.26866,14.50504 -12.523,19.73977 -8.09265,5.13223 -10.59906,5.12235 -2.84878,-0.0107 z m -458.83136,1.1992 c 0,-0.77662 0.6,-1.0412 1.33333,-0.58798 0.73333,0.45323 1.33333,1.08864 1.33333,1.41203 0,0.32339 -0.6,0.58797 -1.33333,0.58797 -0.73333,0 -1.33333,-0.63541 -1.33333,-1.41202 z m 4.66666,0.0787 c -0.45322,-0.73333 -0.18864,-1.33333 0.58798,-1.33333 0.77661,0 1.41202,0.6 1.41202,1.33333 0,0.73334 -0.26458,1.33334 -0.58797,1.33334 -0.32339,0 -0.9588,-0.6 -1.41203,-1.33334 z m 144.66667,0 c 0,-0.73333 0.6,-1.33333 1.33333,-1.33333 0.73334,0 1.33334,0.6 1.33334,1.33333 0,0.73334 -0.6,1.33334 -1.33334,1.33334 -0.73333,0 -1.33333,-0.6 -1.33333,-1.33334 z m 197.33333,0 c 0,-0.73333 0.6,-1.33333 1.33334,-1.33333 0.73333,0 1.33333,0.6 1.33333,1.33333 0,0.73334 -0.6,1.33334 -1.33333,1.33334 -0.73334,0 -1.33334,-0.6 -1.33334,-1.33334 z m 145.33334,0 c 0,-0.73333 0.63541,-1.33333 1.41202,-1.33333 0.77662,0 1.0412,0.6 0.58798,1.33333 -0.45323,0.73334 -1.08864,1.33334 -1.41203,1.33334 -0.32339,2e-5 -0.58797,-0.59998 -0.58797,-1.33331 z m 4.66666,0 c 0.45323,-0.73333 1.08864,-1.33333 1.41203,-1.33333 0.32339,0 0.58797,0.6 0.58797,1.33333 0,0.73334 -0.63541,1.33334 -1.41202,1.33334 -0.77662,0 -1.0412,-0.6 -0.58798,-1.33334 z m -488,-2.66666 c -0.45322,-0.73334 -0.18864,-1.33334 0.58798,-1.33334 0.77661,0 1.41202,0.6 1.41202,1.33334 0,0.73333 -0.26458,1.33333 -0.58797,1.33333 -0.32339,0 -0.9588,-0.6 -1.41203,-1.33333 z m 150,0 c 0,-0.73334 0.63542,-1.33334 1.41203,-1.33334 0.77661,0 1.0412,0.6 0.58797,1.33334 -0.45322,0.73333 -1.08864,1.33333 -1.41202,1.33333 -0.32339,3e-5 -0.58798,-0.59997 -0.58798,-1.33331 z m 4.66667,0 c 0.45323,-0.73334 1.08864,-1.33334 1.41203,-1.33334 0.32338,0 0.58797,0.6 0.58797,1.33334 0,0.73333 -0.63541,1.33333 -1.41203,1.33333 -0.77661,0 -1.0412,-0.6 -0.58797,-1.33333 z m 170,-0.0787 c 0,-0.77661 0.6,-1.0412 1.33333,-0.58797 0.73334,0.45322 1.33334,1.08864 1.33334,1.41202 0,0.32339 -0.6,0.58798 -1.33334,0.58798 C 484.6,422.66667 484,422.03125 484,421.25464 Z m 4.66667,0.0787 c -0.45323,-0.73334 -0.18864,-1.33334 0.58797,-1.33334 0.77661,0 1.41203,0.6 1.41203,1.33334 0,0.73333 -0.26459,1.33333 -0.58798,1.33333 -0.32338,0 -0.9588,-0.6 -1.41202,-1.33333 z m 150,0 c 0,-0.73334 0.63541,-1.33334 1.41202,-1.33334 0.77662,0 1.0412,0.6 0.58798,1.33334 -0.45323,0.73333 -1.08864,1.33333 -1.41203,1.33333 -0.32339,3e-5 -0.58797,-0.59997 -0.58797,-1.33331 z m -499.33334,-4 c 0.45323,-0.73334 1.08864,-1.33334 1.41203,-1.33334 0.32339,0 0.58797,0.6 0.58797,1.33334 0,0.73333 -0.63541,1.33333 -1.41202,1.33333 -0.77662,0 -1.0412,-0.6 -0.58798,-1.33333 z m 519.33334,-0.0787 c 0,-0.77661 0.6,-1.0412 1.33333,-0.58797 0.73333,0.45322 1.33333,1.08864 1.33333,1.41202 0,0.32339 -0.6,0.58798 -1.33333,0.58798 -0.73333,0 -1.33333,-0.63542 -1.33333,-1.41203 z m -271.73334,-1.52131 c -0.88,-0.88 -1.6,-2.86 -1.6,-4.4 0,-1.54 0.72,-3.52 1.6,-4.4 3.54323,-3.54322 10.4,-0.9688 10.4,3.90476 0,5.09803 -6.9336,8.36164 -10.4,4.89524 z m 17.82858,-0.49524 c -4.02723,-4.02721 -1.71011,-9.90476 3.90476,-9.90476 1.54,0 3.52,0.72 4.4,1.6 0.88,0.88 1.6,2.86 1.6,4.4 0,5.61487 -5.87755,7.93199 -9.90476,3.90476 z M 236,414.66667 c 0,-0.73334 0.63541,-1.33334 1.41203,-1.33334 0.77661,0 1.0412,0.6 0.58797,1.33334 C 237.54677,415.4 236.91136,416 236.58797,416 236.26459,416 236,415.4 236,414.66667 Z m 4.66667,0 c -0.45323,-0.73334 -0.18864,-1.33334 0.58797,-1.33334 0.77661,0 1.41203,0.6 1.41203,1.33334 0,0.73333 -0.26459,1.33333 -0.58798,1.33333 -0.32338,0 -0.9588,-0.6 -1.41202,-1.33333 z m 316.66666,0 c 0,-0.73334 0.63542,-1.33334 1.41203,-1.33334 0.77661,0 1.0412,0.6 0.58797,1.33334 C 558.88011,415.4 558.24469,416 557.92131,416 c -0.32339,0 -0.58798,-0.6 -0.58798,-1.33333 z m 4.66667,0 c -0.45323,-0.73334 -0.18864,-1.33334 0.58797,-1.33334 0.77662,0 1.41203,0.6 1.41203,1.33334 C 564,415.4 563.73541,416 563.41203,416 563.08864,416 562.45323,415.4 562,414.66667 Z M 231.33333,413.33333 C 231.78656,412.6 232.42197,412 232.74536,412 c 0.32339,0 0.58797,0.6 0.58797,1.33333 0,0.73334 -0.63541,1.33334 -1.41202,1.33334 -0.77662,0 -1.0412,-0.6 -0.58798,-1.33334 z m 14,0 c 0,-0.73333 0.63542,-1.33333 1.41203,-1.33333 0.77661,0 1.0412,0.6 0.58797,1.33333 -0.45322,0.73334 -1.08864,1.33334 -1.41202,1.33334 -0.32339,0 -0.58798,-0.6 -0.58798,-1.33334 z m 307.33334,0 C 552.21344,412.6 552.47803,412 553.25464,412 c 0.77661,0 1.41203,0.6 1.41203,1.33333 0,0.73334 -0.26459,1.33334 -0.58798,1.33334 -0.32338,0 -0.9588,-0.6 -1.41202,-1.33334 z m 14,-0.0787 c 0,-0.77662 0.6,-1.0412 1.33333,-0.58798 0.73333,0.45323 1.33333,1.08864 1.33333,1.41203 0,0.32339 -0.6,0.58797 -1.33333,0.58797 -0.73333,0 -1.33333,-0.63541 -1.33333,-1.41202 z m -340,-1.25467 c 0,-0.73333 0.6,-1.33333 1.33333,-1.33333 0.73333,0 1.33333,0.6 1.33333,1.33333 0,0.73333 -0.6,1.33333 -1.33333,1.33333 -0.73333,0 -1.33333,-0.6 -1.33333,-1.33333 z m 344,0 c 0,-0.73333 0.6,-1.33333 1.33333,-1.33333 0.73333,0 1.33333,0.6 1.33333,1.33333 0,0.73333 -0.6,1.33333 -1.33333,1.33333 -0.73333,0 -1.33333,-0.6 -1.33333,-1.33333 z m -321.33334,-1.41203 c 0,-0.77661 0.6,-1.0412 1.33334,-0.58797 C 251.4,410.45323 252,411.08864 252,411.41203 252,411.73541 251.4,412 250.66667,412 c -0.73334,0 -1.33334,-0.63541 -1.33334,-1.41203 z m 299.33334,0.0787 c 0.45322,-0.73334 1.08864,-1.33334 1.41202,-1.33334 0.32339,0 0.58798,0.6 0.58798,1.33334 0,0.73333 -0.63542,1.33333 -1.41203,1.33333 -0.77661,0 -1.0412,-0.6 -0.58797,-1.33333 z M 148,409.33333 C 148,408.6 148.6,408 149.33333,408 c 0.73334,0 1.33334,0.6 1.33334,1.33333 0,0.73334 -0.6,1.33334 -1.33334,1.33334 -0.73333,0 -1.33333,-0.6 -1.33333,-1.33334 z m 74.66667,0 C 222.66667,408.6 223.26667,408 224,408 c 0.73333,0 1.33333,0.6 1.33333,1.33333 0,0.73334 -0.6,1.33334 -1.33333,1.33334 -0.73333,0 -1.33333,-0.6 -1.33333,-1.33334 z m 352,0 C 574.66667,408.6 575.26667,408 576,408 c 0.73333,0 1.33333,0.6 1.33333,1.33333 0,0.73334 -0.6,1.33334 -1.33333,1.33334 -0.73333,0 -1.33333,-0.6 -1.33333,-1.33334 z m 74.66666,0 c 0,-0.73333 0.6,-1.33333 1.33334,-1.33333 0.73333,0 1.33333,0.6 1.33333,1.33333 0,0.73334 -0.6,1.33334 -1.33333,1.33334 -0.73334,0 -1.33334,-0.6 -1.33334,-1.33334 z m -510.66666,-1.41202 c 0,-0.77662 0.6,-1.0412 1.33333,-0.58798 0.73333,0.45323 1.33333,1.08864 1.33333,1.41203 0,0.32339 -0.6,0.58797 -1.33333,0.58797 -0.73333,0 -1.33333,-0.63541 -1.33333,-1.41202 z M 659.33333,408 c 0.45323,-0.73333 1.08864,-1.33333 1.41203,-1.33333 0.32339,0 0.58797,0.6 0.58797,1.33333 0,0.73333 -0.63541,1.33333 -1.41202,1.33333 -0.77662,0 -1.0412,-0.6 -0.58798,-1.33333 z m -440,-1.33333 c -0.45322,-0.73334 -0.18864,-1.33334 0.58798,-1.33334 0.77661,0 1.41202,0.6 1.41202,1.33334 0,0.73333 -0.26458,1.33333 -0.58797,1.33333 -0.32339,0 -0.9588,-0.6 -1.41203,-1.33333 z m 359.33334,0 c 0,-0.73334 0.63541,-1.33334 1.41202,-1.33334 0.77662,0 1.0412,0.6 0.58798,1.33334 C 580.21344,407.4 579.57803,408 579.25464,408 c -0.32339,0 -0.58797,-0.6 -0.58797,-1.33333 z m -408,-1.33334 C 170.66667,404.6 171.26667,404 172,404 c 0.73333,0 1.33333,0.6 1.33333,1.33333 0,0.73334 -0.6,1.33334 -1.33333,1.33334 -0.73333,0 -1.33333,-0.6 -1.33333,-1.33334 z m 456,0 C 626.66667,404.6 627.26667,404 628,404 c 0.73333,0 1.33333,0.6 1.33333,1.33333 0,0.73334 -0.6,1.33334 -1.33333,1.33334 -0.73333,0 -1.33333,-0.6 -1.33333,-1.33334 z m -460,-2.66666 c 0,-0.73334 0.6,-1.33334 1.33333,-1.33334 0.73333,0 1.33333,0.6 1.33333,1.33334 0,0.73333 -0.6,1.33333 -1.33333,1.33333 -0.73333,0 -1.33333,-0.6 -1.33333,-1.33333 z m 49.33333,0 c 0,-0.73334 0.6,-1.33334 1.33333,-1.33334 0.73334,0 1.33334,0.6 1.33334,1.33334 0,0.73333 -0.6,1.33333 -1.33334,1.33333 C 216.6,404 216,403.4 216,402.66667 Z m 44.73847,0.11613 c -1.38706,-2.24429 0.57493,-4.66944 2.34536,-2.89901 1.04378,1.04378 1.04378,1.85522 0,2.89901 -1.0438,1.0438 -1.70027,1.0438 -2.34536,0 z m 54.1342,-0.69971 c 0.25336,-1.2232 1.06066,-2.19229 1.794,-2.15356 1.97905,0.10454 1.61546,3.0875 -0.46067,3.77954 -1.12149,0.37384 -1.62132,-0.2357 -1.33333,-1.62598 z M 482,402.66667 c -1.08735,-1.75936 0.50695,-4.2561 2.09213,-3.27639 1.61948,1.00089 1.60896,4.60972 -0.0135,4.60972 -0.69006,0 -1.62547,-0.6 -2.0787,-1.33333 z m 54.206,-0.58354 c 0.25336,-1.2232 1.06067,-2.19229 1.794,-2.15356 1.97905,0.10454 1.61547,3.0875 -0.46067,3.77954 -1.12149,0.37384 -1.62132,-0.2357 -1.33333,-1.62598 z m 45.12733,0.58354 c 0,-0.73334 0.6,-1.33334 1.33334,-1.33334 0.73333,0 1.33333,0.6 1.33333,1.33334 C 584,403.4 583.4,404 582.66667,404 c -0.73334,0 -1.33334,-0.6 -1.33334,-1.33333 z m 49.33334,0 c 0,-0.73334 0.6,-1.33334 1.33333,-1.33334 0.73333,0 1.33333,0.6 1.33333,1.33334 0,0.73333 -0.6,1.33333 -1.33333,1.33333 -0.73333,0 -1.33333,-0.6 -1.33333,-1.33333 z M 144,401.33333 C 144,400.6 144.6,400 145.33333,400 c 0.73334,0 1.33334,0.6 1.33334,1.33333 0,0.73334 -0.6,1.33334 -1.33334,1.33334 -0.73333,0 -1.33333,-0.6 -1.33333,-1.33334 z m 18.66667,0 c 0,-0.73333 0.63541,-1.33333 1.41202,-1.33333 0.77662,0 1.0412,0.6 0.58798,1.33333 -0.45323,0.73334 -1.08864,1.33334 -1.41203,1.33334 -0.32339,0 -0.58797,-0.6 -0.58797,-1.33334 z m 66.66666,-0.0787 c 0,-0.77662 0.6,-1.0412 1.33334,-0.58798 0.73333,0.45323 1.33333,1.08864 1.33333,1.41203 0,0.32339 -0.6,0.58797 -1.33333,0.58797 -0.73334,0 -1.33334,-0.63541 -1.33334,-1.41202 z M 234,401.33333 C 234.45323,400.6 235.08864,400 235.41203,400 c 0.32338,0 0.58797,0.6 0.58797,1.33333 0,0.73334 -0.63541,1.33334 -1.41203,1.33334 -0.77661,0 -1.0412,-0.6 -0.58797,-1.33334 z m 330,-0.0787 c 0,-0.77662 0.6,-1.0412 1.33333,-0.58798 0.73334,0.45323 1.33334,1.08864 1.33334,1.41203 0,0.32339 -0.6,0.58797 -1.33334,0.58797 C 564.6,402.66669 564,402.03128 564,401.25467 Z m 4.66667,0.0787 C 569.11989,400.6 569.75531,400 570.07869,400 c 0.32339,0 0.58798,0.6 0.58798,1.33333 0,0.73334 -0.63542,1.33334 -1.41203,1.33334 -0.77661,0 -1.0412,-0.6 -0.58797,-1.33334 z m 66.66666,0 C 634.88011,400.6 635.14469,400 635.92131,400 c 0.77661,0 1.41202,0.6 1.41202,1.33333 0,0.73334 -0.26458,1.33334 -0.58797,1.33334 -0.32339,0 -0.9588,-0.6 -1.41203,-1.33334 z m 18,0 c 0,-0.73333 0.6,-1.33333 1.33334,-1.33333 0.73333,0 1.33333,0.6 1.33333,1.33333 0,0.73334 -0.6,1.33334 -1.33333,1.33334 -0.73334,0 -1.33334,-0.6 -1.33334,-1.33334 z m -414.66666,-1.41202 c 0,-0.77662 0.6,-1.0412 1.33333,-0.58798 0.73333,0.45323 1.33333,1.08864 1.33333,1.41203 0,0.32339 -0.6,0.58797 -1.33333,0.58797 -0.73333,0 -1.33333,-0.63541 -1.33333,-1.41202 z m 29.39488,-0.51382 c -3.60092,-4.33884 2.35829,-9.55908 6.35257,-5.5648 1.69807,1.69807 1.87196,2.73992 0.75371,4.51566 -1.94688,3.09156 -5.0331,3.54718 -7.10628,1.04914 z m 122.16068,1.03695 c -1.7715,-1.77149 -0.83035,-5.71528 1.68517,-7.06155 1.9426,-1.03965 3.08679,-0.86489 4.66403,0.71235 1.57724,1.57724 1.752,2.72143 0.71234,4.66403 -1.34626,2.51552 -5.29005,3.45666 -7.06154,1.68517 z m 12.53729,-1.60427 c -1.0918,-2.04005 -0.93684,-3.13904 0.66905,-4.74493 2.87288,-2.87288 7.56576,-0.41304 6.98567,3.66164 -0.55671,3.91053 -5.74841,4.64527 -7.65472,1.08329 z m 122.63536,0.56732 c -3.60092,-4.33884 2.35829,-9.55908 6.35257,-5.5648 1.69807,1.69807 1.87196,2.73992 0.75371,4.51566 -1.94688,3.09156 -5.03309,3.54718 -7.10628,1.04914 z M 559.33333,400 c 0.45323,-0.73333 1.08864,-1.33333 1.41203,-1.33333 0.32339,0 0.58797,0.6 0.58797,1.33333 0,0.73333 -0.63541,1.33333 -1.41202,1.33333 -0.77662,0 -1.0412,-0.6 -0.58798,-1.33333 z m -344.66666,-1.33333 c 0,-0.73334 0.63541,-1.33334 1.41202,-1.33334 0.77662,0 1.0412,0.6 0.58798,1.33334 C 216.21344,399.4 215.57803,400 215.25464,400 c -0.32339,0 -0.58797,-0.6 -0.58797,-1.33333 z m 86.76524,-1.14915 c -1.92639,-3.59948 1.1712,-7.47391 5.00302,-6.25773 5.197,1.64946 3.17119,8.74021 -2.49706,8.74021 -0.64756,0 -1.77524,-1.11712 -2.50596,-2.48248 z m 190.90142,1.59944 c -2.8615,-1.15464 -1.97008,-6.84096 1.23174,-7.85717 3.83182,-1.21618 6.92941,2.65825 5.00302,6.25773 -1.31677,2.46041 -3.01889,2.89707 -6.23476,1.59944 z m 90.33334,-0.45029 c 0,-0.73334 0.6,-1.33334 1.33333,-1.33334 0.73333,0 1.33333,0.6 1.33333,1.33334 0,0.73333 -0.6,1.33333 -1.33333,1.33333 -0.73333,0 -1.33333,-0.6 -1.33333,-1.33333 z M 283.03691,397 c -2.53392,-3.27477 -2.80586,-6.06987 -0.86072,-8.84693 3.54042,-5.05467 12.49048,-2.37798 12.49048,3.73552 0,5.16806 -8.6457,8.96794 -11.62976,5.11141 z m 224.40216,-0.88316 c -3.26692,-3.60991 -1.87922,-9.12157 2.57825,-10.24033 6.62489,-1.66274 11.04952,3.12658 8.19883,8.8746 -2.09748,4.22925 -7.55924,4.9214 -10.77708,1.36573 z M 169.63889,395.75 c 0.8241,-2.47229 3.69444,-2.88235 3.69444,-0.52777 0,1.1611 -0.95,2.1111 -2.1111,2.1111 -1.16112,0 -1.87362,-0.7125 -1.58334,-1.58333 z m 457.02778,-0.52777 c 0,-1.16112 0.71249,-1.87362 1.58333,-1.58334 2.47229,0.8241 2.88235,3.69444 0.52777,3.69444 -1.1611,0 -2.1111,-0.95 -2.1111,-2.1111 z m -403.33334,-0.55556 c 0.45323,-0.73334 1.08864,-1.33334 1.41203,-1.33334 0.32339,0 0.58797,0.6 0.58797,1.33334 0,0.73333 -0.63541,1.33333 -1.41202,1.33333 -0.77662,0 -1.0412,-0.6 -0.58798,-1.33333 z m 351.33334,-0.0787 c 0,-0.77661 0.6,-1.0412 1.33333,-0.58797 0.73333,0.45322 1.33333,1.08864 1.33333,1.41202 0,0.32339 -0.6,0.58798 -1.33333,0.58798 -0.73333,0 -1.33333,-0.63542 -1.33333,-1.41203 z m -360,-1.33333 c 0,-0.77662 0.6,-1.0412 1.33333,-0.58798 0.73333,0.45323 1.33333,1.08864 1.33333,1.41203 0,0.32339 -0.6,0.58797 -1.33333,0.58797 -0.73333,0 -1.33333,-0.63541 -1.33333,-1.41202 z M 244,393.33333 C 244,392.6 244.6,392 245.33333,392 c 0.73334,0 1.33334,0.6 1.33334,1.33333 0,0.73334 -0.6,1.33334 -1.33334,1.33334 -0.73333,0 -1.33333,-0.6 -1.33333,-1.33334 z m 309.33333,0 c 0,-0.73333 0.6,-1.33333 1.33334,-1.33333 0.73333,0 1.33333,0.6 1.33333,1.33333 0,0.73334 -0.6,1.33334 -1.33333,1.33334 -0.73334,0 -1.33334,-0.6 -1.33334,-1.33334 z m 30,0 C 583.78656,392.6 584.42197,392 584.74536,392 c 0.32339,0 0.58797,0.6 0.58797,1.33333 0,0.73334 -0.63541,1.33334 -1.41202,1.33334 -0.77662,0 -1.0412,-0.6 -0.58798,-1.33334 z m -348.66666,-1.41202 c 0,-0.77662 0.6,-1.0412 1.33333,-0.58798 0.73333,0.45323 1.33333,1.08864 1.33333,1.41203 0,0.32339 -0.6,0.58797 -1.33333,0.58797 -0.73333,0 -1.33333,-0.63541 -1.33333,-1.41202 z M 563.33333,392 c 0.45323,-0.73333 1.08864,-1.33333 1.41203,-1.33333 0.32339,0 0.58797,0.6 0.58797,1.33333 0,0.73333 -0.63541,1.33333 -1.41202,1.33333 -0.77662,0 -1.0412,-0.6 -0.58798,-1.33333 z M 224,390.66667 c 0,-0.73334 0.6,-1.33334 1.33333,-1.33334 0.73334,0 1.33334,0.6 1.33334,1.33334 0,0.73333 -0.6,1.33333 -1.33334,1.33333 C 224.6,392 224,391.4 224,390.66667 Z m 349.33333,0 c 0,-0.73334 0.6,-1.33334 1.33334,-1.33334 0.73333,0 1.33333,0.6 1.33333,1.33334 C 576,391.4 575.4,392 574.66667,392 c -0.73334,0 -1.33334,-0.6 -1.33334,-1.33333 z m -409.96693,-2.1574 c -2.43323,-2.43324 -2.16544,-4.38128 0.86507,-6.29287 2.89082,-1.82349 6.4352,-0.15564 6.4352,3.02817 0,3.93416 -4.5818,5.98315 -7.30027,3.2647 z m 81.30027,0.82406 C 244.21344,388.6 244.47803,388 245.25464,388 c 0.77661,0 1.41203,0.6 1.41203,1.33333 0,0.73334 -0.26459,1.33334 -0.58798,1.33334 -0.32338,0 -0.9588,-0.6 -1.41202,-1.33334 z m 308.66666,0 c 0,-0.73333 0.63542,-1.33333 1.41203,-1.33333 0.77661,0 1.0412,0.6 0.58797,1.33333 -0.45322,0.73334 -1.08864,1.33334 -1.41202,1.33334 -0.32339,0 -0.58798,-0.6 -0.58798,-1.33334 z m 77.98462,-0.51304 c -2.97771,-2.17736 -2.04864,-6.71146 1.47901,-7.21797 3.33487,-0.47881 6.22124,2.59684 5.12295,5.45892 -1.12928,2.94289 -3.95378,3.69545 -6.60196,1.75905 z M 228,387.92131 c 0,-0.77662 0.6,-1.0412 1.33333,-0.58798 0.73334,0.45323 1.33334,1.08864 1.33334,1.41203 0,0.32339 -0.6,0.58797 -1.33334,0.58797 C 228.6,389.33333 228,388.69792 228,387.92131 Z m 149.94517,-0.0107 c -1.36808,-2.21361 -0.14014,-2.52057 1.77407,-0.44348 0.94557,1.02604 1.13099,1.86552 0.41201,1.86552 -0.71896,0 -1.70269,-0.63992 -2.18608,-1.42204 z m 42.33559,-0.44348 c 0.94559,-1.02604 1.92932,-1.66596 2.18609,-1.42204 0.79086,0.75193 -1.21352,3.28821 -2.5981,3.28821 -0.71898,0 -0.53356,-0.83948 0.41201,-1.86552 z M 570,388 c 0.45323,-0.73333 1.08864,-1.33333 1.41203,-1.33333 0.32338,0 0.58797,0.6 0.58797,1.33333 0,0.73333 -0.63541,1.33333 -1.41203,1.33333 -0.77661,0 -1.0412,-0.6 -0.58797,-1.33333 z m -181.35951,-1.37568 c -0.51781,-0.83784 -0.31408,-2.15073 0.45272,-2.91753 1.79187,-1.79187 5.96952,-0.22892 5.24051,1.96058 -0.74213,2.22891 -4.51516,2.8631 -5.69323,0.95695 z m 17.33334,0 c -0.51782,-0.83784 -0.31408,-2.15073 0.45272,-2.91753 1.79186,-1.79187 5.96952,-0.22892 5.2405,1.96058 -0.74213,2.22891 -4.51516,2.8631 -5.69322,0.95695 z m -187.30716,-1.36968 c 0,-0.77661 0.6,-1.0412 1.33333,-0.58797 0.73333,0.45322 1.33333,1.08864 1.33333,1.41202 0,0.32339 -0.6,0.58798 -1.33333,0.58798 -0.73333,0 -1.33333,-0.63542 -1.33333,-1.41203 z m 360.66666,0.0787 C 579.78656,384.6 580.42197,384 580.74536,384 c 0.32339,0 0.58797,0.6 0.58797,1.33333 0,0.73334 -0.63541,1.33334 -1.41202,1.33334 -0.77662,0 -1.0412,-0.6 -0.58798,-1.33334 z M 222,382.66667 c -0.45323,-0.73334 -0.18864,-1.33334 0.58797,-1.33334 0.77662,0 1.41203,0.6 1.41203,1.33334 C 224,383.4 223.73541,384 223.41203,384 c -0.32339,0 -0.9588,-0.6 -1.41203,-1.33333 z m 354,0 c 0,-0.73334 0.63541,-1.33334 1.41203,-1.33334 0.77661,0 1.0412,0.6 0.58797,1.33334 C 577.54677,383.4 576.91136,384 576.58797,384 576.26459,384 576,383.4 576,382.66667 Z m -192.60972,-2.57454 c -0.42192,-0.68266 -0.15732,-1.61808 0.58797,-2.07869 0.7453,-0.46061 1.35508,0.0979 1.35508,1.2412 0,2.34204 -0.80008,2.68688 -1.94305,0.83749 z m 31.27639,-0.83749 c 0,-1.14328 0.60978,-1.70181 1.35508,-1.2412 0.74529,0.46061 1.00989,1.39603 0.58797,2.07869 -1.14297,1.84939 -1.94305,1.50455 -1.94305,-0.83749 z m -266.4,-0.85464 c -0.88,-0.88 -1.6,-3.16 -1.6,-5.06667 0,-1.90666 0.72,-4.18666 1.6,-5.06666 3.77076,-3.77076 11.73333,-0.33238 11.73333,5.06666 0,5.39904 -7.96257,8.83743 -11.73333,5.06667 z m 82.4,0.18797 c 0,-0.77661 0.6,-1.0412 1.33333,-0.58797 0.73333,0.45323 1.33333,1.08864 1.33333,1.41203 0,0.32338 -0.6,0.58797 -1.33333,0.58797 -0.73333,0 -1.33333,-0.63541 -1.33333,-1.41203 z m 336.66666,0.0787 c 0.45323,-0.73334 1.08864,-1.33334 1.41203,-1.33334 0.32339,0 0.58797,0.6 0.58797,1.33334 0,0.73333 -0.63541,1.33333 -1.41202,1.33333 -0.77662,0 -1.0412,-0.6 -0.58798,-1.33333 z m 74.8343,-0.68952 c -4.55488,-4.55488 -0.85503,-11.80887 5.63577,-11.04954 4.69361,0.54908 7.47561,5.96643 4.99495,9.72659 -2.26096,3.42712 -7.83312,4.12055 -10.63072,1.32295 z M 178.96335,352.59107 c -5.61835,-3.93524 -3.08891,-14.68355 5.76074,-24.47906 6.10119,-6.75329 7.7693,-6.15018 2.286,0.82651 -5.94416,7.56307 -8.54756,13.40395 -8.08824,18.14639 0.3648,3.76641 0.9296,4.2978 4.97816,4.68364 4.1876,0.39909 5.46044,-0.49063 15.33334,-10.71806 11.02549,-11.42141 26.92234,-31.33925 25.86022,-32.40137 -0.55717,-0.55716 -22.75328,2.41299 -30.76024,4.11616 -2.69301,0.57283 -3.66666,0.2586 -3.66666,-1.18336 0,-2.82495 1.99065,-3.29885 21.24536,-5.05775 l 17.29949,-1.58029 8.57688,-10.80527 c 4.71728,-5.9429 12.69469,-14.92089 17.72757,-19.95108 l 9.1507,-9.1458 -20,0.65143 c -28.50311,0.92839 -42.69686,6.08191 -54.14551,19.65933 -5.88064,6.97411 -7.85449,8.09582 -7.85449,4.4636 0,-5.25808 25.28498,-35.79704 27.14572,-32.78633 0.43482,0.70357 -2.19507,4.99944 -5.84423,9.54637 -3.64916,4.54694 -6.63483,8.40827 -6.63483,8.58075 0,0.17247 5.25,-2.29352 11.66667,-5.47999 15.1162,-7.50657 29.11575,-10.14116 47.66667,-8.97042 11.90808,0.7515 14.02682,0.53096 19.82108,-2.0632 8.2736,-3.70422 18.55464,-4.27182 19.21372,-1.06078 0.70492,3.43439 -4.65502,6.119 -15.70147,7.86434 -9.13845,1.44386 -10.55797,2.11012 -16.47639,7.73325 -3.56201,3.38429 -10.68777,11.55325 -15.83501,18.15325 l -9.35861,12 4.835,0.41383 c 6.86994,0.58799 5.98462,2.42345 -1.65794,3.43728 -6.32453,0.83897 -6.73617,1.18061 -15.87025,13.17177 -15.95989,20.95202 -31.7846,34.18128 -41.00679,34.28118 -1.48684,0.0161 -4.03684,-0.90475 -5.66666,-2.04632 z m 114.05672,-93.03971 c 2.06848,-2.06848 1.88122,-2.21803 -2.77718,-2.21803 -5.01993,0 -14.24289,3.08475 -14.24289,4.76374 0,1.85593 14.83772,-0.36336 17.02007,-2.54571 z m 44.73376,91.14937 c -6.75224,-2.82109 -7.65288,-12.52053 -1.99078,-21.43969 8.32055,-13.10683 23.96783,-20.5332 48.99566,-23.25388 8.0816,-0.87852 8.10482,-0.89363 18,-11.70948 23.55689,-25.74869 32.22714,-36.29833 30.16974,-36.70941 -2.46778,-0.49308 -10.03432,3.25206 -22.06877,10.92321 -12.34197,7.86716 -13.61609,8.36175 -7.74511,3.00647 C 408.15964,266.91604 435.75344,252 439.22164,252 c 0.98184,0 2.52385,0.89005 3.42669,1.97791 2.35451,2.83701 -0.1756,6.32182 -21.64833,29.81706 -10.08333,11.03308 -18.33333,20.48534 -18.33333,21.00502 0,0.51968 7.50772,0.56436 16.68382,0.0993 l 16.68383,-0.84557 4.31617,-5.00331 c 19.43488,-22.5289 37.67207,-41.71708 39.64951,-41.71708 3.3888,0 0.3924,4.99011 -11,18.31904 -6.78333,7.9364 -14.9392,17.56132 -18.12416,21.38872 L 445.08501,304 h 4.71214 c 7.58768,0 6.88928,2.38901 -0.98603,3.37297 l -7.22489,0.9027 -15.66482,19.23826 c -8.61565,10.58104 -16.32256,19.0193 -17.12645,18.75168 -4.61601,-1.5367 -0.77421,-8.02501 20.20553,-34.12458 l 3.63787,-4.52564 -17.09741,0.65864 -17.09743,0.65865 -14.88843,14.65056 c -20.73934,20.40801 -28.5472,26.0382 -38.26784,27.59465 -2.54132,0.40691 -5.93136,0.19219 -7.53342,-0.47716 z m 17.32681,-9.17245 c 3.83348,-2.95751 12.95859,-11.23323 20.278,-18.39049 l 13.30803,-13.0132 -4.98926,-0.47548 c -7.08708,-0.67539 -20.50768,3.08342 -27.86433,7.80417 -7.81853,5.01713 -16.73625,14.57273 -19.27871,20.65768 -4.73368,11.32931 5.77988,13.26652 18.54627,3.41732 z m -76.85841,5.58283 C 275.62799,344.51688 280.77981,336 284.94328,336 c 4.30421,0 2.62583,8.04296 -2.21952,10.63611 -3.0054,1.60844 -3.33348,1.64306 -4.50153,0.475 z m 175.87301,-1.20635 c -2.61528,-2.61528 -2.63033,-4.70976 -0.0777,-10.81897 1.10962,-2.65571 1.85442,-4.99163 1.65512,-5.19094 -0.19931,-0.1993 -3.95719,2.36423 -8.35084,5.69674 -7.87614,5.97393 -18.97366,11.86766 -20.14342,10.69789 -0.33001,-0.33 2.56986,-2.15277 6.44415,-4.05059 3.87428,-1.89782 14.13367,-9.22673 22.79863,-16.28648 10.72001,-8.73409 17.11117,-13.01869 20,-13.40789 10.72517,-1.44497 10.88913,-1.41071 11.32554,2.36695 0.78555,6.79997 -10.52157,22.67916 -20.78312,29.18684 -6.96414,4.41654 -9.85274,4.82204 -12.86833,1.80645 z m 14.761,-5.29229 c 6.18792,-4.71976 7.83345,-8.11326 5.20752,-10.73919 C 472.92869,328.73821 472,326.25939 472,324.36477 c 0,-3.42308 -0.018,-3.42877 -2.86187,-0.90476 C 459.87908,331.67769 455.32131,344 461.54081,344 c 1.58078,0 4.87272,-1.52439 7.31543,-3.38753 z m 13.43835,-15.64755 c 3.89988,-5.72905 4.47214,-10.69632 1.30802,-11.35371 -4.55376,-0.94609 -11.17045,8.11564 -9.58146,13.1221 1.24081,3.90944 4.9478,3.1171 8.27344,-1.76839 z m -257.7162,20.51125 c 0.50177,-0.81189 1.9791,-1.47617 3.28294,-1.47617 2.25484,0 24.7898,-15.01568 32.38102,-21.57639 1.96662,-1.69965 7.12382,-7.59028 11.46044,-13.09028 14.8765,-18.86742 38.06506,-40 43.89158,-40 1.0301,0 1.73896,1.57671 1.73896,3.8679 0,7.50601 -14.90014,23.82014 -38.89785,42.58914 C 265.96763,325.54169 254.24644,344 260.52212,344 c 1.17951,0 2.14455,0.6 2.14455,1.33333 0,2.65446 -5.4158,1.27783 -6.78367,-1.72432 -1.34089,-2.94293 -0.65421,-6.11761 3.52037,-16.27568 0.90374,-2.19902 0.75986,-2.40204 -0.8204,-1.15764 -15.78624,12.43115 -23.74089,17.39659 -31.74994,19.81884 -2.16899,0.65599 -2.87948,0.49266 -2.25464,-0.51836 z m 66.54057,-42.61665 C 309.24769,287.36551 320.84412,272 314.4088,272 c -2.50272,0 -31.00597,30.82045 -38.81755,41.97324 -2.62053,3.74141 -2.63512,3.88757 -0.20582,2.06268 1.43801,-1.08024 8.5181,-7.00963 15.73353,-13.1764 z m 183.54771,43.24823 c 0,-0.40624 2.223,-1.66746 4.93998,-2.80268 5.85724,-2.44732 15.44447,-9.4862 31.37298,-23.03384 7.40228,-6.29584 12.38253,-9.62298 13.66666,-9.13022 3.3849,1.29891 2.33487,3.77663 -6.01454,14.19232 -8.49043,10.5916 -10.78823,15.58854 -7.96938,17.33068 1.21812,0.75284 0.89956,1.29532 -1.14093,1.94295 C 505.4776,345.89043 504,344.48536 504,339.35677 c 0,-3.01681 1.43829,-6.37502 4.39197,-10.25464 7.56594,-9.93777 7.10479,-9.94526 -4.86658,-0.0791 -6.41428,5.2863 -14.18151,11.0564 -17.26052,12.82242 -5.94515,3.40994 -11.5982,5.4874 -11.5982,4.26226 z m 47.91129,-1.54798 c -1.36079,-1.63962 -1.41449,-2.99196 -0.24219,-6.09776 1.65179,-4.37608 1.60571,-4.3605 -6.33577,2.13991 -3.33459,2.72949 15.70225,-17.98429 22.95223,-24.97408 3.42969,-3.30661 6.3811,-3.848 6.3811,-1.17052 0,0.53163 -3.93276,5.69688 -8.73946,11.47833 C 524.13381,340.92244 522.79233,344 528.71979,344 c 5.32318,0 11.89754,-4.08587 31.84376,-19.7904 11.11346,-8.75012 19.33097,-14.3214 20.47577,-13.88211 3.53703,1.3573 0.6716,9.5937 -7.59288,21.82511 -5.23847,7.75292 -7.32225,11.8474 -6.02947,11.8474 2.84208,0 23.81084,-10.70527 24.47122,-12.49339 1.35257,-3.66242 15.65353,-17.02566 20.9796,-19.60397 11.83468,-5.72907 16.93573,0.78469 7.66569,9.78867 -2.63992,2.56414 -8.96505,6.68257 -14.05584,9.15205 -8.65808,4.19993 -9.23085,4.74836 -8.86681,8.48997 0.31733,3.26158 1.07024,4.0783 4.07844,4.42408 4.82628,0.55478 3.3245,2.90926 -1.85562,2.90926 -6.16788,0 -9.16698,-2.19644 -9.16698,-6.71358 0,-2.1742 -0.25538,-3.95309 -0.56748,-3.95309 -0.31212,0 -5.53039,2.4 -11.59614,5.33333 -7.96554,3.85204 -12.7147,5.32767 -17.09918,5.31292 -7.37199,-0.0248 -8.76859,-0.82922 -11.11079,-6.39966 l -1.82232,-4.33402 -3.23537,2.52712 c -5.15888,4.02952 -14.18222,8.22698 -17.68568,8.22698 -1.77275,0 -4.01004,-0.94811 -4.97175,-2.1069 z m 34.15647,-4.84906 C 554.52012,334.44443 552,333.33273 552,337.62223 c 0,3.45969 2.22775,6.37777 4.86897,6.37777 1.30852,0 1.27946,-0.92636 -0.13454,-4.28929 z m 8.24686,-3.37738 c 4.87206,-6.2913 9.09906,-13.28425 10.91159,-18.05157 1.25496,-3.3008 1.15909,-3.55561 -0.91192,-2.42401 -1.27287,0.69548 -6.66773,4.53569 -11.98859,8.53378 -7.91998,5.95108 -9.33397,7.55174 -7.79749,8.8269 1.03225,0.85669 2.24712,3.03301 2.69971,4.83626 1.12408,4.47868 2.5544,4.13126 7.0867,-1.72136 z m 44.0453,-10.21273 C 620.15557,317.92789 623.86565,312 617.86419,312 c -2.5568,0 -13.82294,10.56647 -16.93958,15.88755 -3.27896,5.59825 -1.3237,5.17182 8.10198,-1.76695 z M 250,232.06129 c -9.79368,-4.05093 -12.34685,-16.25412 -4.80971,-22.98856 4.98831,-4.45706 10.7037,-4.87317 14.17958,-1.03236 3.08089,3.40435 1.45901,9.13527 -3.2497,11.48282 -4.12804,2.05804 -6.78684,0.94705 -6.78684,-2.83591 0,-3.19623 2.96874,-6.60743 4.45602,-5.12016 1.40269,1.40271 1.0139,3.12989 -0.62268,2.76621 -0.825,-0.18333 -1.75036,0.34275 -2.05635,1.16906 -0.80817,2.1824 3.57373,3.47636 5.72535,1.69069 2.85613,-2.37039 2.16084,-6.24881 -1.55695,-8.68481 -7.23751,-4.74219 -14.23705,3.39294 -11.32625,13.16378 1.93405,6.49215 6.65686,9.53594 14.53198,9.36567 13.04355,-0.28203 21.70246,-6.72843 34.25874,-25.50504 4.61562,-6.90219 10.08662,-13.66671 12.15777,-15.03227 3.96368,-2.61337 10.51199,-3.45328 9.09904,-1.16708 -0.45323,0.73334 -2.25323,1.33334 -4,1.33334 -1.74677,0 -3.51219,0.54404 -3.92315,1.20898 -0.41096,0.66495 0.54746,0.87043 2.1298,0.45664 1.97146,-0.51554 2.57678,-0.26657 1.92315,0.79102 -0.52461,0.84884 -1.76509,1.54336 -2.75663,1.54336 -5.0581,0 -11.35077,12.80464 -11.36573,23.12761 -0.014,9.63775 7.95628,17.48009 12.82107,12.61531 2.19914,-2.19915 1.15074,-6.40959 -1.59598,-6.40959 -1.066,0 -1.49866,0.82568 -1.04804,2 0.42212,1.1 0.10334,2 -0.7085,2 -2.31134,0 -1.7278,-4.9514 0.69301,-5.88035 3.14103,-1.20533 6.02951,1.77482 5.56508,5.74168 -0.47365,4.04563 -5.51139,6.31895 -10.96804,4.94942 -7.29413,-1.83071 -9.17309,-14.82374 -3.95499,-27.3488 3.06078,-7.34679 1.15468,-6.22624 -3.6157,2.12561 -5.55568,9.72673 -15.48724,19.76744 -22.86508,23.11639 -5.83244,2.64746 -15.62982,3.30158 -20.33027,1.35734 z M 304.75012,193.639 c -0.95675,-0.95675 -3.31481,1.00767 -4.92391,4.10192 -1.45056,2.7894 -1.35793,2.77535 1.98758,-0.30173 1.92997,-1.77512 3.25132,-3.4852 2.93633,-3.80019 z m 185.58321,38.2542 c -4.73962,-2.76057 -1.5383,-11.70604 3.49767,-9.77355 2.42081,0.92895 3.00435,5.88035 0.69301,5.88035 -0.81178,0 -1.13062,-0.9 -0.7085,-2 0.45062,-1.17432 0.018,-2 -1.04804,-2 -2.74672,0 -3.79512,4.21044 -1.59598,6.40959 4.86479,4.86478 12.83506,-2.97756 12.82107,-12.61531 -0.015,-10.32297 -6.30763,-23.12761 -11.36573,-23.12761 -0.99154,0 -2.23202,-0.69452 -2.75663,-1.54336 -0.65363,-1.05759 -0.0483,-1.30656 1.92315,-0.79102 1.58234,0.41379 2.54076,0.20831 2.1298,-0.45664 -0.41096,-0.66494 -2.17638,-1.20898 -3.92315,-1.20898 -1.74677,0 -3.54677,-0.6 -4,-1.33334 -1.41295,-2.2862 5.13536,-1.44629 9.09904,1.16708 2.07115,1.36556 7.54215,8.13008 12.15777,15.03227 12.55628,18.77661 21.21519,25.22301 34.25874,25.50504 7.87512,0.17027 12.59793,-2.87352 14.53198,-9.36567 1.86536,-6.26153 0.0325,-11.75193 -4.63281,-13.87757 -6.31443,-2.87705 -13.36453,5.15423 -8.25039,9.3986 2.15162,1.78567 6.53352,0.49171 5.72535,-1.69069 -0.30599,-0.82631 -1.23135,-1.35239 -2.05635,-1.16906 -1.63658,0.36368 -2.02537,-1.3635 -0.62268,-2.76621 1.48728,-1.48727 4.45602,1.92393 4.45602,5.12016 0,3.78296 -2.6588,4.89395 -6.78684,2.83591 -4.70871,-2.34755 -6.33059,-8.07847 -3.2497,-11.48282 3.47588,-3.84081 9.19127,-3.4247 14.17958,1.03236 3.35596,2.99855 4.21416,4.8471 4.33172,9.33035 0.31949,12.18468 -14.79248,18.82717 -28.61255,12.57671 -8.77147,-3.96712 -16.55819,-11.44074 -22.71145,-21.79823 -5.79358,-9.75203 -7.79254,-11.35076 -4.65078,-3.71961 4.57878,11.12156 3.71008,23.57132 -1.85244,26.54829 -3.1444,1.68283 -7.97917,1.63129 -10.98088,-0.11707 z m 9.38186,-34.82012 c -1.06888,-1.60981 -2.79206,-3.19212 -3.8293,-3.51624 -1.03724,-0.32412 -0.4313,0.993 1.34652,2.92692 3.93219,4.27744 5.11858,4.55904 2.48278,0.58932 z m -215.04852,33.59359 c -1.11606,-1.80582 0.3899,-4 2.74536,-4 1.05672,0 1.9213,1.2 1.9213,2.66666 0,2.76042 -3.21668,3.67947 -4.66666,1.33334 z m 226,-1.33334 c 0,-2.0082 0.6962,-2.72812 2.33333,-2.41284 1.28333,0.24715 2.33333,1.33292 2.33333,2.41284 0,1.07992 -1.05,2.1657 -2.33333,2.41284 -1.63713,0.31528 -2.33333,-0.40464 -2.33333,-2.41284 z M 288,221.33333 C 288,220.6 288.6,220 289.33333,220 c 0.73334,0 1.33334,0.6 1.33334,1.33333 0,0.73334 -0.6,1.33334 -1.33334,1.33334 -0.73333,0 -1.33333,-0.6 -1.33333,-1.33334 z m 221.33333,0 c 0,-0.73333 0.6,-1.33333 1.33334,-1.33333 0.73333,0 1.33333,0.6 1.33333,1.33333 0,0.73334 -0.6,1.33334 -1.33333,1.33334 -0.73334,0 -1.33334,-0.6 -1.33334,-1.33334 z M 356,210.66667 c -3.38876,-3.38876 -3.36944,-7.03967 0.0749,-14.15479 2.93639,-6.06577 12.05032,-12.94713 19.2584,-14.54083 l 4,-0.88438 -4.17772,2.67576 c -6.70712,4.29582 -8.48894,7.89041 -8.48894,17.1253 0,7.0597 -0.44112,8.60336 -2.96335,10.37 -3.81353,2.67111 -4.49331,2.61895 -7.70332,-0.59106 z m 80.29668,0.59106 c -2.52223,-1.76664 -2.96335,-3.3103 -2.96335,-10.37 0,-9.23489 -1.78182,-12.82948 -8.48894,-17.1253 l -4.17772,-2.67576 4,0.86112 c 6.74162,1.45132 16.48744,8.90461 19.3608,14.8065 3.34362,6.86788 3.33637,10.54854 -0.0275,13.91238 -3.21001,3.21001 -3.88979,3.26217 -7.70332,0.59106 z M 206.23901,207.9498 c -4.16202,-3.27385 -6.42405,-9.80519 -6.69752,-19.33828 -0.11453,-3.99109 -0.32888,-7.2614 -0.47644,-7.26736 -0.14756,-0.005 -3.66842,-0.89645 -7.82417,-1.97889 -6.95623,-1.81186 -8.49465,-1.75895 -19.38427,0.66666 -11.45938,2.55255 -27.96901,3.27608 -34.26864,1.50183 -1.69328,-0.47691 2.50672,-0.88876 9.33334,-0.91523 6.82661,-0.0265 18.12722,-1.16113 25.11248,-2.52144 11.57922,-2.25496 13.30056,-2.29738 19.49821,-0.4806 l 6.79777,1.99272 1.66342,-7.4329 c 2.31386,-10.33947 8.16729,-16.17918 16.20681,-16.16887 11.22393,0.0144 15.36731,2.1014 39.16057,19.72512 2.21498,1.64064 7.61498,4.49983 12,6.35373 5.87623,2.48438 6.7456,3.1364 3.3061,2.47952 -6.52306,-1.24578 -12.42226,-4.46569 -24,-13.09973 -17.89371,-13.34415 -27.37047,-16.59525 -35.74723,-12.26347 -4.29691,2.22203 -8.9448,10.17815 -9.99131,17.10284 -0.66322,4.38844 -0.29284,5.29866 3.15508,7.7538 8.82015,6.2805 13.87515,22.08527 8.05928,25.19782 -1.9306,1.03322 -3.31882,0.72581 -5.90348,-1.30727 z m 6.51706,-3.16464 c 1.02006,-4.06425 -3.20332,-13.69021 -7.90303,-18.01264 -1.93005,-1.77512 -3.75011,-2.97512 -4.04457,-2.66667 -1.02055,1.06904 1.95065,16.20536 3.93389,20.04051 2.48527,4.80599 6.87989,5.15628 8.01371,0.6388 z m 374.9106,4.40487 c -5.63364,-3.19315 -0.39104,-18.97772 8.37674,-25.22095 3.61282,-2.57253 3.94268,-3.38063 3.16522,-7.75379 -1.24071,-6.97889 -5.91798,-14.83554 -10.12807,-17.01268 -8.37676,-4.33178 -17.85352,-1.08068 -35.74723,12.26347 -11.57774,8.63404 -17.47694,11.85395 -24,13.09973 -3.4395,0.65688 -2.57013,0.005 3.3061,-2.47952 4.38502,-1.8539 9.78502,-4.71309 12,-6.35373 23.79326,-17.62372 27.93664,-19.71073 39.16057,-19.72512 8.03952,-0.0107 13.89295,5.8294 16.20681,16.16887 l 1.66342,7.4329 6.79777,-1.99272 c 6.11916,-1.79377 7.99908,-1.77025 18.83155,0.23567 6.61858,1.22561 16.53378,2.73241 22.03378,3.34847 l 10,1.12008 -9.68078,0.17297 c -5.42111,0.0969 -14.88543,-0.98633 -21.50916,-2.46175 -10.88962,-2.42561 -12.42804,-2.47852 -19.38427,-0.66666 -4.15575,1.08244 -7.67661,1.97352 -7.82417,1.98018 -0.14756,0.007 -0.39316,3.65754 -0.5458,8.11304 -0.43788,12.78167 -7.00758,22.97074 -12.72248,19.73154 z m 7.59097,-5.04367 c 1.98324,-3.83515 4.95444,-18.97147 3.93389,-20.04051 -0.29446,-0.30845 -2.11452,0.89155 -4.04457,2.66667 -4.69971,4.32243 -8.92309,13.94839 -7.90303,18.01264 1.13382,4.51748 5.52844,4.16719 8.01371,-0.6388 z m -223.81917,-2.23171 c -1.86494,-1.86493 -1.87422,-2.49362 -0.0879,-5.94814 1.09864,-2.12454 4.59691,-5.38614 7.77392,-7.24799 6.32092,-3.70431 8.63963,-4.3142 6.47196,-1.70233 -0.76816,0.92557 -2.68473,5.12557 -4.25905,9.33333 -3.03867,8.12155 -5.79374,9.67043 -9.89902,5.56513 z m 47.22405,-5.56513 c -1.57432,-4.20776 -3.49089,-8.40776 -4.25905,-9.33333 -2.16767,-2.61187 0.15104,-2.00198 6.47196,1.70233 3.17701,1.86185 6.67528,5.12345 7.77392,7.24799 1.7864,3.45452 1.77712,4.08321 -0.0879,5.94814 -4.10528,4.1053 -6.86035,2.55642 -9.89901,-5.56513 z m -91.19087,4.19683 c -0.965,-2.51479 0.0596,-4.5544 2.27371,-4.52594 1.13035,0.0145 1.09465,0.33344 -0.12387,1.1066 -0.94368,0.59879 -1.3284,2.08539 -0.85734,3.31292 0.46996,1.22471 0.55448,2.22674 0.18781,2.22674 -0.36667,0 -1.03281,-0.95415 -1.48032,-2.12032 z m 143.80616,0.22692 c 0.45979,-1.44872 0.0693,-3.03159 -0.89932,-3.64626 -1.2185,-0.77316 -1.2542,-1.09206 -0.12386,-1.1066 2.51434,-0.0323 3.35926,2.41311 1.71685,4.96903 -1.38403,2.15381 -1.44028,2.13628 -0.69368,-0.21617 z M 72.761905,189.90476 c -1.152381,-1.15237 -2.095238,-2.85939 -2.095238,-3.79335 0,-1.96142 4.231644,-6.11141 6.23167,-6.11141 1.740659,0 5.76833,4.42899 5.76833,6.34308 0,2.05035 -3.825314,5.65692 -6,5.65692 -0.995239,0 -2.752382,-0.94285 -3.904762,-2.09524 z M 88.482168,190 c -1.19666,-3.11844 0.492811,-6 3.517832,-6 3.392288,0 4.868033,3.34752 2.652575,6.01697 -2.117234,2.55112 -5.18818,2.54267 -6.170407,-0.0169 z m 617.156752,0.43892 c -2.36048,-2.36048 -2.01901,-4.80835 0.88773,-6.36399 1.86368,-0.99741 2.94216,-0.8516 4.11011,0.5557 3.48745,4.20213 -1.17985,9.62628 -4.99784,5.80829 z m 13.78965,-0.53416 c -1.15238,-1.15237 -2.09524,-2.85939 -2.09524,-3.79335 0,-1.96142 4.23164,-6.11141 6.23167,-6.11141 1.74067,0 5.76833,4.42899 5.76833,6.34308 0,2.05035 -3.8253,5.65692 -6,5.65692 -0.99524,0 -2.75238,-0.94285 -3.90476,-2.09524 z m -618.5119,-1.43253 c -1.831793,-1.8318 -0.88165,-4.66102 1.41666,-4.2184 1.28334,0.24714 2.33334,1.29114 2.33334,2.31998 0,2.10515 -2.35239,3.29602 -3.75,1.89842 z m 594.46016,-0.40184 C 694.20451,186.17353 695.69948,184 698.17645,184 c 1.1682,0 1.8374,0.93675 1.58798,2.22284 -0.51936,2.67796 -3.18155,3.79896 -4.3876,1.84755 z M 53.6,186.4 c -1.965668,-1.96567 -2.055877,-5.72349 -0.219755,-9.15432 2.064495,-3.85755 8.673531,-3.42059 11.409031,0.75432 2.023223,3.08783 2.023223,3.57884 0,6.66667 C 62.409572,188.29856 56.425541,189.22555 53.6,186.4 Z m 288.20933,0.27789 c -6.10596,-2.46405 -9.03721,-11.31321 -5.76981,-17.41841 3.11787,-5.82579 16.01323,-8.51233 24.87368,-5.18204 4.40971,1.65744 12.39791,6.87943 12.41103,8.11324 0.0263,2.46835 -4.57518,1.99912 -8.85106,-0.90257 -10.32724,-7.00826 -20.5383,-7.53032 -23.42368,-1.1976 -1.96866,4.32074 -0.19913,9.44796 4.45695,12.914 5.83384,4.34278 12.32107,0.2349 9.10853,-5.76776 -1.76884,-3.30511 -4.37652,-3.3531 -3.33176,-0.0613 0.9731,3.06594 -3.00008,5.11382 -4.143,2.13542 -1.47974,-3.85616 0.60864,-5.97752 5.88462,-5.97752 5.80141,0 8.3085,1.86176 8.3085,6.16989 0,6.45807 -11.14809,10.55476 -19.524,7.17467 z m 100.524,-1.3102 c -3.85361,-3.04216 -4.78028,-7.72074 -2.06666,-10.43436 2.34324,-2.34324 11.64528,-2.04757 12.58449,0.4 1.17807,3.06996 -0.47127,6.06208 -2.84043,5.15296 -1.33253,-0.51134 -1.80157,-1.71148 -1.29394,-3.31085 1.04476,-3.29179 -1.56292,-3.2438 -3.33176,0.0613 -3.21254,6.00267 3.27469,10.11055 9.10853,5.76776 4.65608,-3.46604 6.42561,-8.59325 4.45695,-12.914 -2.88538,-6.33272 -13.09644,-5.81065 -23.42368,1.1976 -4.27588,2.9017 -8.87728,3.37092 -8.85106,0.90258 0.0133,-1.23382 8.00132,-6.4558 12.41103,-8.11324 8.86045,-3.3303 21.75581,-0.64375 24.87368,5.18204 2.29693,4.29188 1.56565,10.36768 -1.7056,14.17073 -4.36217,5.07133 -14.6806,6.07485 -19.92155,1.93748 z m 292.92874,-0.62266 c -2.09168,-3.19231 -2.09168,-3.63108 0,-6.82339 3.17814,-4.85045 10.13184,-4.18459 11.99598,1.14872 1.73187,4.95483 -0.34341,8.14461 -5.64377,8.67467 -3.20225,0.32022 -4.61339,-0.34622 -6.35221,-3 z M 108.66667,184 c 0.45322,-0.73333 1.08863,-1.33333 1.41202,-1.33333 0.32339,0 0.58798,0.6 0.58798,1.33333 0,0.73333 -0.63541,1.33333 -1.41203,1.33333 -0.77661,0 -1.0412,-0.6 -0.58797,-1.33333 z m 580.66666,-0.0787 c 0,-0.77661 0.6,-1.0412 1.33334,-0.58797 C 691.4,183.78659 692,184.422 692,184.74539 c 0,0.32338 -0.6,0.58797 -1.33333,0.58797 -0.73334,0 -1.33334,-0.63541 -1.33334,-1.41203 z m -293,-1.30861 c -1.65,-0.65639 -3,-1.36276 -3,-1.56973 0,-0.20696 2.97,-0.3763 6.6,-0.3763 6.48174,0 7.3344,0.9984 2.06667,2.41987 -1.46667,0.39577 -4.01667,0.18255 -5.66667,-0.47384 z M 300,182.14265 c 0,-0.28821 0.93116,-0.88133 2.06925,-1.31806 1.18656,-0.45532 1.72176,-0.2318 1.25464,0.52401 C 302.54088,182.61555 300,183.22253 300,182.14265 Z m 17.6,-1.07598 c -2.09691,-2.09691 -2.05469,-9.40772 0.0667,-11.5489 1.34077,-1.35329 0.23273,-1.47061 -5.66667,-0.6 -9.85379,1.45419 -18.48428,1.09347 -23.33333,-0.97524 -2.2,-0.93856 -4.4946,-1.59473 -5.09911,-1.45813 -0.60451,0.13659 -0.76112,-0.29855 -0.34801,-0.96696 0.4131,-0.6684 -0.18187,-1.98957 -1.32215,-2.93592 -6.26861,-5.20249 -7.75185,-16.35739 -2.8974,-21.79031 3.24499,-3.63165 10.33333,-6.10281 10.33333,-3.60242 0,0.81284 -1.08,1.47788 -2.4,1.47788 -6.42381,0 -7.69922,8.81716 -1.93333,13.36556 3.06523,2.41798 4.99361,2.80877 11.75631,2.38242 6.64521,-0.41893 10.86042,-1.90945 23.60757,-8.34773 18.40268,-9.29475 26.47113,-10.74255 35.16104,-6.30928 8.97652,4.57947 16.7802,14.54709 21.20292,27.08239 l 1.83591,5.20353 -6.14076,-4.68881 c -3.37742,-2.57884 -8.60426,-5.35823 -11.6152,-6.1764 -10.16848,-2.7631 -34.9105,1.11482 -40.07712,6.28146 -3.5892,3.5892 -4.04539,8.48472 -1.06811,11.46202 2.2368,2.2368 3.15965,2.42208 5.58877,1.12206 1.60026,-0.85644 2.72335,-2.51694 2.49578,-3.69004 C 327.16327,173.34431 324,172.61411 324,175.48889 c 0,1.8572 -0.35239,2.02539 -1.60952,0.76826 -1.25715,-1.25715 -1.16301,-2.05604 0.42995,-3.649 2.68885,-2.68886 6.5129,-1.12635 6.5129,2.66118 0,5.72635 -7.90068,9.62999 -11.73333,5.79734 z m 155.27332,-0.83832 c -4.61701,-5.10174 -0.48576,-12.41223 4.30625,-7.6202 1.59296,1.59296 1.6871,2.39185 0.42995,3.649 -1.25713,1.25713 -1.60952,1.08894 -1.60952,-0.76826 0,-2.87478 -3.16327,-2.14458 -3.74711,0.86496 -0.22757,1.1731 0.89552,2.8336 2.49578,3.69004 2.42912,1.30002 3.35197,1.11474 5.58877,-1.12206 2.97728,-2.9773 2.52109,-7.87282 -1.06811,-11.46202 -5.16662,-5.16664 -29.90864,-9.04456 -40.07712,-6.28146 -3.01094,0.81817 -8.23778,3.59756 -11.6152,6.1764 l -6.14076,4.68881 1.83591,-5.20353 c 4.42272,-12.5353 12.2264,-22.50292 21.20292,-27.08239 8.68991,-4.43327 16.75836,-2.98547 35.16104,6.30928 12.74715,6.43828 16.96236,7.9288 23.60757,8.34773 6.7627,0.42635 8.69108,0.0356 11.75631,-2.38242 5.76589,-4.5484 4.49048,-13.36556 -1.93333,-13.36556 -1.32,0 -2.4,-0.66504 -2.4,-1.47788 0,-2.50039 7.08834,-0.0292 10.33333,3.60242 4.85445,5.43292 3.37121,16.58782 -2.8974,21.79031 -1.14028,0.94635 -1.73525,2.26752 -1.32215,2.93592 0.41311,0.66841 0.2565,1.10355 -0.34801,0.96696 -0.60451,-0.1366 -2.89911,0.51957 -5.09911,1.45813 -4.84905,2.06871 -13.47954,2.42943 -23.33333,0.97524 -5.8994,-0.87061 -7.00744,-0.75329 -5.66667,0.6 2.12136,2.14118 2.16358,9.45199 0.0667,11.5489 -2.35625,2.35625 -7.00592,1.94709 -9.52668,-0.83832 z m 23.80279,1.12025 c -0.46712,-0.75581 0.0681,-0.97933 1.25464,-0.52401 2.30989,0.88638 2.73252,1.84208 0.81461,1.84208 -0.69005,0 -1.62123,-0.59314 -2.06925,-1.31807 z m -222.55828,-1.46765 c -7.45386,-1.80384 -18.0627,-7.45824 -34.83511,-18.56675 -16.41928,-10.87461 -23.17628,-14.22092 -33.89179,-16.7844 -7.66526,-1.83377 -23.86889,-2.41355 -29.0006,-1.03765 -5.87868,1.57616 -7.29061,15.0931 -2.16785,20.75369 1.34684,1.48824 1.59001,2.42083 0.63124,2.42083 -0.85777,0 -2.65292,-1.79784 -3.98921,-3.99522 -1.33631,-2.19736 -2.8592,-3.56565 -3.38422,-3.04064 -0.52501,0.52502 -0.67288,0.0728 -0.3286,-1.00478 0.3443,-1.07766 0.99388,-4.57686 1.44355,-7.77602 l 0.81757,-5.81665 -6.37306,3.6742 c -3.5052,2.02081 -10.32951,6.57573 -15.16515,10.12205 -4.83564,3.54631 -12.23472,8.52091 -16.44241,11.05464 l -7.65033,4.60679 5.10907,2.69556 c 2.80999,1.48255 4.50907,2.71981 3.77574,2.74949 -0.73334,0.0297 -3.31924,-1.15684 -5.74646,-2.63666 l -4.41313,-2.69062 -8.72732,2.69559 c -5.96363,1.84199 -11.95512,2.63023 -18.920207,2.48916 l -10.192886,-0.20644 10.666666,-0.86397 c 5.866667,-0.4752 13.755997,-1.91036 17.531837,-3.18927 l 6.86517,-2.32529 -4.53184,-7.52586 c -7.24506,-12.03161 -5.70162,-23.90285 3.86623,-29.7367 9.22962,-5.62764 19.60194,-1.14823 19.60194,8.46533 0,8.75103 -10.03239,15.39153 -16.67638,11.03821 -6.14783,-4.02821 -2.81028,-14.16848 4.63972,-14.09658 1.21932,0.012 0.75479,0.68062 -1.15755,1.66666 -4.3615,2.2489 -5.77878,6.61634 -3.29692,10.15968 2.62966,3.75438 6.07749,3.55752 11.05549,-0.63118 C 141.00489,146.00687 137.63397,136 127.65661,136 c -6.37888,0 -13.71178,6.71789 -15.03562,13.77457 -1.0178,5.42534 1.48826,13.71642 5.85835,19.38182 3.28311,4.25624 4.94665,3.58977 25.29002,-10.13191 9.29352,-6.26851 19.99215,-12.78144 23.77472,-14.47319 3.78257,-1.69174 7.25791,-3.69156 7.72296,-4.44404 1.56183,-2.52706 10.82845,-4.19153 16.24821,-2.91848 l 5.15142,1.21003 -7.33334,0.15435 c -11.31229,0.2381 -12.20408,2.32528 -1.06001,2.48092 5.34968,0.0747 11.82668,0.75328 14.39335,1.50792 4.3759,1.28658 4.50052,1.24154 2,-0.72286 -2.5892,-2.03409 -2.56984,-2.06652 0.66666,-1.11649 6.3807,1.87297 18.10344,8.40403 34.32064,19.12096 8.97635,5.93191 19.47635,12.38703 23.33334,14.34472 9.35628,4.74897 21.527,5.63981 34.29693,2.51037 11.42713,-2.80036 14.0274,-1.92762 3.08543,1.03558 -10.64158,2.88185 -20.07824,3.66069 -26.25184,2.16668 z M 512,180.46744 c -6.24525,-0.94192 -20.11877,-4.79311 -19.49908,-5.4128 0.33971,-0.33971 5.23836,0.41036 10.88591,1.66683 13.34678,2.96937 24.38044,2.12602 33.65185,-2.57215 3.84268,-1.94724 14.331,-8.39381 23.30735,-14.32572 16.2172,-10.71693 27.93994,-17.24799 34.32064,-19.12096 3.2365,-0.95003 3.25586,-0.9176 0.66666,1.11649 -2.50052,1.9644 -2.3759,2.00944 2,0.72286 2.56667,-0.75464 9.04367,-1.4332 14.39335,-1.50792 11.14407,-0.15564 10.25228,-2.24282 -1.06001,-2.48092 l -7.33334,-0.15435 5.15142,-1.21003 c 5.41976,-1.27305 14.68638,0.39142 16.24821,2.91848 0.46505,0.75248 3.94039,2.7523 7.72296,4.44404 3.78257,1.69175 14.4812,8.20468 23.77472,14.47319 20.34337,13.72168 22.00691,14.38815 25.29003,10.13191 4.37008,-5.6654 6.87614,-13.95648 5.85834,-19.38182 C 686.03031,142.58535 678.73132,136 672.11172,136 c -9.78028,0 -13.03364,10.07668 -5.34275,16.54815 4.978,4.1887 8.42583,4.38556 11.0555,0.63118 2.48185,-3.54334 1.06457,-7.91078 -3.29692,-10.15968 -1.91235,-0.98604 -2.37688,-1.65489 -1.15756,-1.66666 7.45,-0.0719 10.78756,10.06837 4.63973,14.09658 -6.644,4.35332 -16.67639,-2.28718 -16.67639,-11.03821 0,-9.61356 10.37232,-14.09297 19.60194,-8.46533 9.56785,5.83385 11.11129,17.70509 3.86622,29.7367 l -4.53182,7.52586 6.86516,2.32529 c 3.77585,1.27891 11.66517,2.71407 17.53184,3.18927 l 10.66666,0.86397 -10.19288,0.20644 c -6.96509,0.14107 -12.95658,-0.64717 -18.92021,-2.48916 l -8.72732,-2.69559 -4.41312,2.69062 c -2.42723,1.47982 -5.01313,2.66633 -5.74647,2.63666 -0.73333,-0.0297 0.96575,-1.26694 3.77574,-2.74949 l 5.10908,-2.69556 -7.65035,-4.60679 c -4.20768,-2.53373 -11.60676,-7.50833 -16.4424,-11.05464 -4.83564,-3.54632 -11.65995,-8.10124 -15.16515,-10.12205 l -6.37306,-3.6742 0.81757,5.81665 c 0.44967,3.19916 1.09925,6.69836 1.44355,7.77602 0.34428,1.07764 0.19641,1.5298 -0.3286,1.00478 -0.52502,-0.52501 -2.04791,0.84328 -3.38422,3.04064 -1.33629,2.19738 -3.13144,3.99522 -3.98921,3.99522 -0.95877,0 -0.7156,-0.93259 0.63124,-2.42083 5.12276,-5.66059 3.71083,-19.17753 -2.16785,-20.75369 -5.00642,-1.34231 -19.88142,-0.8172 -28.27634,0.99817 -11.06326,2.39239 -17.68688,5.61156 -34.61605,16.82388 -17.39239,11.51912 -27.26755,16.70153 -35.39172,18.57335 -6.10627,1.40686 -7.45365,1.4655 -13.32556,0.57989 z m 150.41667,-0.0449 c 0.96249,-0.38516 2.1125,-0.3378 2.55556,0.1052 0.44305,0.44305 -0.34446,0.75818 -1.75,0.70029 -1.55327,-0.064 -1.8692,-0.37992 -0.80556,-0.80555 z M 239.75,179.08917 c 0.96249,-0.38516 2.11249,-0.3378 2.55556,0.1052 0.44305,0.44306 -0.34445,0.75819 -1.75,0.7003 -1.55327,-0.064 -1.8692,-0.37992 -0.80556,-0.80555 z m 318.66667,0 c 0.96249,-0.38516 2.1125,-0.3378 2.55556,0.1052 0.44305,0.44306 -0.34446,0.75819 -1.75,0.7003 -1.55327,-0.064 -1.8692,-0.37992 -0.80556,-0.80555 z M 73.678093,176.45411 C 69.854496,175.10049 66.028456,172.1176 61.865111,167.24435 54.356672,158.45563 48.646113,154.77899 40.329576,153.37909 L 34,152.31365 l 5.73288,-0.15682 c 6.345945,-0.1736 12.368665,2.37138 17.933787,7.57817 2.016666,1.88681 3.666666,2.69105 3.666666,1.78719 0,-2.88064 6.423042,-8.18886 9.908656,-8.18886 4.128422,0 8.028078,5.33171 6.778731,9.26806 -0.960093,3.02498 -4.611216,3.60812 -7.087387,1.13194 C 68.986388,161.78639 68.858788,160 70.666667,160 71.4,160 72,160.9 72,162 c 0,1.1 0.835807,2 1.857348,2 2.234712,0 3.679708,-3.25101 2.644297,-5.94924 -1.364494,-3.55583 -5.83388,-3.84996 -9.281746,-0.61087 -6.855154,6.4401 -2.515859,14.24424 10.400954,18.70596 3.875198,1.33856 5.845814,2.40598 4.379147,2.37203 -1.466667,-0.034 -5.211525,-0.96265 -8.321907,-2.06377 z m 649.506877,-0.45783 c 12.42215,-4.85133 16.2675,-12.28801 9.59514,-18.55639 -4.86642,-4.57174 -11.51114,-1.30033 -9.26228,4.56011 0.9967,2.59736 4.48217,2.59736 4.48217,0 0,-1.1 0.6,-2 1.33333,-2 1.80788,0 1.68028,1.78639 -0.26666,3.73333 -2.47618,2.47618 -6.1273,1.89304 -7.08739,-1.13194 -1.24935,-3.93635 2.65031,-9.26806 6.77873,-9.26806 3.48562,0 9.90866,5.30822 9.90866,8.18886 0,0.90386 1.65,0.0996 3.66666,-1.78719 5.56512,-5.20679 11.58784,-7.75177 17.93379,-7.57817 l 5.73288,0.15682 -6.32957,1.06544 c -8.31192,1.39912 -14.02674,5.07612 -21.5185,13.84531 -4.46437,5.2256 -7.845,7.76848 -12.38384,9.31501 -8.65481,2.949 -10.52048,2.55672 -2.58312,-0.54313 z m -335.59442,-1.36701 c -1.28176,-1.82996 -2.25722,-5.73164 -2.25722,-9.02851 0,-4.654 0.78196,-6.58784 3.94132,-9.7472 2.18966,-2.18967 3.61782,-4.78433 3.21343,-5.83815 -0.76583,-1.99572 5.01935,-8.68208 7.51192,-8.68208 2.49257,0 8.27775,6.68636 7.51192,8.68208 -0.40439,1.05382 1.02377,3.64848 3.21343,5.83815 3.18954,3.18955 3.94132,5.07715 3.94132,9.89616 0,3.9654 -0.87608,7.00647 -2.62231,9.10257 -2.57017,3.08512 -2.62319,3.09163 -2.66667,0.32752 -0.0244,-1.5511 -1.2879,-4.4011 -2.8078,-6.33333 -5.0792,-6.45716 -13.32598,-3.69328 -15.72301,5.26953 l -0.99912,3.73588 z M 281,175.11696 c 0.91667,-0.36988 2.41667,-0.36988 3.33333,0 0.91667,0.36988 0.16667,0.67252 -1.66666,0.67252 -1.83334,0 -2.58334,-0.30264 -1.66667,-0.67252 z m 116.66667,0 c -2.33587,-0.94255 -2.08458,-6.67129 0.33333,-7.59913 3.22219,-1.23647 6,0.53 6,3.8155 0,2.34648 -2.87401,5.2975 -4.44239,4.5614 -0.12333,-0.0579 -0.97428,-0.40789 -1.89094,-0.77777 z m 118,0 c 0.91666,-0.36988 2.41666,-0.36988 3.33333,0 0.91667,0.36988 0.16667,0.67252 -1.66667,0.67252 -1.83333,0 -2.58333,-0.30264 -1.66666,-0.67252 z m -411.22223,-3.72625 c 0,-1.06844 0.81389,-2.25494 1.80863,-2.63666 1.41869,-0.5444 1.5044,-0.1256 0.39754,1.94263 -1.68093,3.14084 -2.20617,3.30608 -2.20617,0.69403 z m 588.52865,-0.62428 c -0.43472,-1.66238 -0.098,-2.34692 0.9556,-1.94263 0.89478,0.34336 1.62687,1.49847 1.62687,2.56691 0,2.81746 -1.79597,2.3833 -2.58247,-0.62428 z M 48.266667,170.4 c -2.099303,-2.09931 -2.018776,-3.12408 0.438585,-5.58144 3.664336,-3.66433 9.131965,1.36116 5.821159,5.35044 -1.872163,2.25581 -4.150838,2.33991 -6.259744,0.231 z M 745.6,170.4 c -2.09931,-2.09931 -2.01877,-3.12408 0.43859,-5.58144 3.66433,-3.66433 9.13196,1.36116 5.82116,5.35044 -1.87216,2.25581 -4.15084,2.33991 -6.25975,0.231 z M 28,168 c -3.609368,-3.60937 -3.355037,-8.2218 0.661409,-11.99507 1.830442,-1.7196 3.63412,-2.82052 4.008175,-2.44646 0.374053,0.37406 -0.52358,1.76941 -1.994743,3.1008 -3.246976,2.93848 -3.462357,8.26056 -0.46819,11.56908 C 33.196279,171.53185 31.339732,171.33973 28,168 Z m 741.66667,0.42236 c 3.10773,-3.50597 2.95461,-8.78013 -0.34151,-11.76309 -1.47116,-1.33139 -2.3688,-2.72674 -1.99475,-3.1008 1.17459,-1.17459 7.33626,5.45908 7.33626,7.89824 0,3.84724 -1.48798,6.53398 -4.4902,8.10768 -2.74895,1.44093 -2.76584,1.4031 -0.5098,-1.14203 z M 34.4,167.73333 c 1.927196,-1.9272 2.158612,-6.90261 0.266667,-5.73333 -0.733334,0.45323 -1.333334,0.18864 -1.333334,-0.58797 0,-2.0101 2.062844,-1.74616 3.929266,0.50274 1.81968,2.19258 -0.229915,7.41856 -2.909511,7.41856 -1.155833,0 -1.143833,-0.40925 0.04691,-1.6 z m 153.16168,-0.34368 c 7.61772,-3.31365 9.4816,-11.80092 3.83225,-17.45025 -1.8,-1.8 -2.67272,-3.27273 -1.93938,-3.27273 2.98778,0 7.87878,6.6477 7.87878,10.70862 0,5.07531 -6.32245,11.98282 -10.89744,11.90586 -2.73286,-0.046 -2.59872,-0.27136 1.12579,-1.8915 z m 419.00243,-1.95376 c -4.97284,-4.97284 -5.21215,-10.90906 -0.62471,-15.49649 1.8,-1.8 3.87272,-3.27273 4.60605,-3.27273 0.73334,0 -0.13938,1.47273 -1.93938,3.27273 -5.64935,5.64933 -3.78547,14.1366 3.83225,17.45025 3.72451,1.62014 3.85865,1.84552 1.12579,1.8915 -1.70642,0.0287 -4.85642,-1.70166 -7,-3.84526 z m 156.05694,1.14555 c -1.0932,-2.04265 -1.06321,-3.24539 0.1164,-4.66667 1.86643,-2.2489 3.92927,-2.51284 3.92927,-0.50274 0,0.77661 -0.6,1.0412 -1.33333,0.58797 -1.89195,-1.16928 -1.66054,3.80613 0.26666,5.73333 1.19075,1.19075 1.20275,1.6 0.0469,1.6 -0.8542,0 -2.21583,-1.23836 -3.02586,-2.75189 z M 254.15317,165.2156 c -4.09689,-3.22261 -7.81492,-9.72955 -6.43333,-11.259 0.52076,-0.57648 0.009,-0.71476 -1.13529,-0.30728 -1.64655,0.58587 -1.96487,-0.058 -1.52163,-3.07801 0.72687,-4.95248 3.40223,-7.0783 7.58643,-6.02814 4.75657,1.19383 4.36177,5.53215 -0.7437,8.17228 -4.5448,2.35022 -4.49476,2.51699 3.28635,10.95122 4.57161,4.95533 4.12959,5.61441 -1.03883,1.54893 z m -0.0769,-16.00561 c 1.28323,-2.0763 -1.24031,-4.11374 -3.85327,-3.11104 -1.23053,0.4722 -2.22296,2.29842 -2.22296,4.09061 0,2.79352 0.35559,3.04729 2.59242,1.85019 1.42582,-0.76308 2.99354,-2.03647 3.48381,-2.82976 z m 290.65999,14.71325 c 7.92124,-8.93409 7.89893,-8.85964 3.35813,-11.20779 -5.10547,-2.64013 -5.50027,-6.97845 -0.74369,-8.17228 1.92174,-0.48232 4.19616,-0.13922 5.33333,0.80454 2.27165,1.8853 2.63185,6.09369 0.6276,7.3324 -0.74529,0.46061 -1.05543,1.32233 -0.68919,1.91493 0.97739,1.58144 -4.75932,9.47103 -8.6224,11.85825 -3.0453,1.88187 -2.98169,1.66324 0.73622,-2.53005 z M 552,150.14265 c 0,-3.56306 -3.66399,-5.69381 -5.88963,-3.42505 -1.04113,1.06131 -0.56597,2.18889 1.704,4.04371 C 551.8072,154.02388 552,153.99539 552,150.14265 Z M 43.591804,160.48069 c -1.065241,-1.06524 0.138915,-3.14736 1.820219,-3.14736 0.690054,0 1.254644,0.9 1.254644,2 0,2.06188 -1.573284,2.64894 -3.074863,1.14736 z M 134.66667,160 c 0,-0.73333 0.63541,-1.33333 1.41202,-1.33333 0.77662,0 1.0412,0.6 0.58798,1.33333 -0.45323,0.73333 -1.08864,1.33333 -1.41203,1.33333 -0.32339,0 -0.58797,-0.6 -0.58797,-1.33333 z m 528.66666,0 c -0.45322,-0.73333 -0.18864,-1.33333 0.58798,-1.33333 0.77661,0 1.41202,0.6 1.41202,1.33333 0,0.73333 -0.26458,1.33333 -0.58797,1.33333 -0.32339,0 -0.9588,-0.6 -1.41203,-1.33333 z m 90,-0.66667 c 0,-1.22222 0.6,-2.02222 1.33334,-1.77777 C 755.4,157.8 756,158.6 756,159.33333 c 0,0.73334 -0.6,1.53334 -1.33333,1.77778 -0.73334,0.24445 -1.33334,-0.55555 -1.33334,-1.77778 z m -573.23656,-2.84648 c -1.51989,-1.93222 -2.76344,-4.21222 -2.76344,-5.06666 0,-2.4462 2.94226,-4.7615 5.93334,-4.669 2.57866,0.0797 2.56357,0.15274 -0.26667,1.29036 -5.72789,2.30233 -2.16748,11.20378 3.85171,9.62973 1.9893,-0.52023 2.59938,-0.27385 1.94476,0.78536 -1.63438,2.64448 -5.81462,1.698 -8.6997,-1.96979 z m 345.23656,2.25851 c 0,-0.69005 0.59314,-1.62123 1.31807,-2.06925 0.75581,-0.46712 0.97933,0.0681 0.52401,1.25464 -0.88638,2.30989 -1.84208,2.73252 -1.84208,0.81461 z m 85.91732,-0.21248 c -0.71088,-1.15021 -0.16089,-1.39992 1.89764,-0.8616 6.03148,1.57727 9.54684,-7.27657 3.85171,-9.70096 l -3,-1.27708 3.19716,0.32004 c 5.15089,0.51563 6.56743,4.21107 3.29861,8.60535 -3.00096,4.03417 -7.6477,5.49893 -9.24512,2.91425 z m -471.02014,-4.74513 c 0.25997,-1.34992 1.36446,-2.45442 2.45442,-2.45442 2.858,0 2.4452,3.87423 -0.47268,4.43616 -1.78186,0.34315 -2.32489,-0.19988 -1.98174,-1.98174 z m 240.32777,-1.99735 c -1.19728,-2.31529 -4.78148,-6.99415 -7.96489,-10.39748 -11.42182,-12.21083 -11.73684,-23.53349 -0.85346,-30.6743 8.131,-5.33491 12.44148,-9.75919 14.98956,-15.385287 1.59244,-3.516101 2.43759,-4.424717 2.48038,-2.666666 0.0775,3.182954 -3.94407,11.582873 -8.55247,17.863843 -4.30535,5.86794 -4.22513,10.06923 0.26372,13.81164 8.06524,6.7241 9.74555,9.26476 9.74555,14.73541 0,4.60815 -5.35238,16.92244 -7.3553,16.92244 -0.31693,0 -1.55581,-1.89432 -2.75309,-4.2096 z m 32.32933,-1.29309 c -6.36958,-10.86888 -4.94982,-16.86667 6.19127,-26.15516 4.69764,-3.91648 4.5466,-7.95178 -0.56157,-15.00341 -4.71283,-6.50587 -7.89508,-13.465137 -7.75646,-16.962581 0.0523,-1.318328 1.16952,-0.0019 2.50966,2.957174 2.55376,5.638657 6.86764,10.059947 15.03534,15.409717 2.73488,1.79132 5.66236,4.91827 6.50551,6.94878 2.25853,5.43908 0.65703,13.71593 -3.69117,19.07658 -7.50704,9.255 -11.81307,14.89114 -13.23258,17.32006 -1.29892,2.2226 -1.8066,1.85796 -5,-3.59116 z m 242.37392,4.05318 c -1.16357,-1.88269 1.40627,-4.45253 3.28896,-3.28896 0.79723,0.49272 1.44951,1.76044 1.44951,2.81716 0,2.24483 -3.43152,2.5865 -4.73847,0.4718 z m -420.59486,-4.0288 c -7.45722,-4.47701 -10.80539,-8.06746 -14.16344,-15.18836 -3.62043,-7.67727 -4.18408,-18.32503 -1.33147,-25.15229 2.18775,-5.23601 8.07464,-10.201641 12.00805,-10.12885 2.20684,0.0408 1.88347,0.45941 -1.48689,1.92459 -7.36152,3.20026 -9.88956,8.95488 -9.42572,21.45585 0.4958,13.36209 4.16357,19.79982 14.73452,25.8622 3.84905,2.20741 6.39828,4.01686 5.66495,4.02101 -0.73334,0.004 -3.43334,-1.25323 -6,-2.79415 z m 330.33161,-1.22686 c 10.57095,-6.06238 14.23872,-12.50011 14.73452,-25.8622 0.46384,-12.50097 -2.0642,-18.25559 -9.42572,-21.45585 -3.37036,-1.46518 -3.69373,-1.88375 -1.48689,-1.92459 3.93341,-0.07279 9.8203,4.89284 12.00805,10.12885 4.25039,10.17261 0.45336,27.38131 -7.65177,34.67897 -3.8782,3.49182 -12.02166,8.46611 -13.84314,8.45583 -0.73333,-0.004 1.8159,-1.8136 5.66495,-4.02101 z m -435.84911,-0.39435 c 1.00506,-1.21761 1.41629,-3.24927 0.921,-4.55017 -0.6739,-1.77003 -0.51526,-1.97379 0.64254,-0.82527 1.99602,1.98001 1.1803,6.06911 -1.37938,6.91464 -1.70926,0.5646 -1.73603,0.34085 -0.18416,-1.5392 z m 162.1976,0.41111 c 0.46062,-0.7453 1.39603,-1.0099 2.0787,-0.58798 1.84938,1.14298 1.50454,1.94306 -0.8375,1.94306 -1.14328,0 -1.70181,-0.60979 -1.2412,-1.35508 z m 6.86552,0.36524 c -0.38665,-0.62562 -0.20314,-1.94627 0.40779,-2.93478 1.35225,-2.18801 5.83477,-0.77406 5.04697,1.59199 -0.66721,2.00389 -4.46793,2.93952 -5.45476,1.34279 z m 198.45438,-0.3435 c -1.08806,-1.76049 0.36914,-4 2.6027,-4 1.95024,0 3.68896,3.2639 2.41654,4.53631 -1.24334,1.24335 -4.10858,0.93719 -5.01924,-0.53631 z m 9.34677,-0.0217 c 0.46061,-0.74529 1.39603,-1.00989 2.07869,-0.58797 1.84939,1.14297 1.50455,1.94305 -0.83749,1.94305 -1.14328,0 -1.70181,-0.60979 -1.2412,-1.35508 z m 162.87545,0.46619 c -1.3431,-1.3431 -1.06509,-5.5115 0.42918,-6.435 0.75812,-0.46855 0.97796,0.0716 0.51749,1.27162 -0.44031,1.14743 -0.06,2.97859 0.8452,4.06924 1.59303,1.91948 0.004,2.88986 -1.79187,1.09414 z M 146.89323,146.863 c -1.00355,-0.65206 -1.58238,-2.82598 -1.33334,-5.00764 0.37227,-3.26101 1.03431,-3.85532 4.29479,-3.85532 4.75267,0 7.48041,3.57862 5.33567,7 -1.6685,2.66164 -5.68128,3.56263 -8.29712,1.86296 z M 645.6,146.4 c -3.81324,-3.81324 -0.30424,-9.63392 5.32661,-8.83568 2.26884,0.32163 3.1886,1.44492 3.5135,4.291 0.62245,5.45285 -5.02738,8.35741 -8.84011,4.54468 z m -339.32153,-0.56597 c -3.04699,-3.047 0.94013,-9.2285 4.958,-7.68671 3.26586,1.25324 2.2503,7.73528 -1.29134,8.24225 -1.49684,0.21427 -3.14684,-0.0357 -3.66666,-0.55554 z m 181.33333,0 c -1.76583,-1.76583 -0.95473,-6.87838 1.22387,-7.71438 2.95494,-1.13393 6.04737,1.69996 5.56201,5.097 -0.39431,2.75972 -4.90408,4.49918 -6.78588,2.61738 z M 157.93597,135.42275 c -3.83501,-5.85298 2.49684,-12.77475 8.81514,-9.63641 6.37334,3.16568 4.2862,12.88033 -2.76728,12.88033 -2.68371,0 -4.59358,-1.02442 -6.04786,-3.24392 z m 157.33676,-0.0288 c -6.54718,-6.54718 -2.90436,-17.54854 6.88,-20.77768 2.62775,-0.86723 8.60602,-1.33301 13.28506,-1.03508 10.75581,0.68488 17.91426,5.38583 23.59573,15.49529 l 3.97695,7.07648 -5.02463,-3.40981 c -6.62465,-4.49561 -9.71855,-4.31061 -21.01976,1.25686 -11.35869,5.59579 -17.12121,5.96607 -21.69335,1.39394 z m 81.24532,1.36625 c -1.32756,-3.45957 0.53318,-6.31892 3.80932,-5.8537 2.20364,0.31292 3.00596,1.31654 3.00596,3.76018 0,2.44364 -0.80232,3.44727 -3.00596,3.76019 -1.80304,0.25602 -3.32745,-0.41094 -3.80932,-1.66667 z M 463.03392,134 c -11.25033,-5.54241 -14.40209,-5.74773 -20.8686,-1.35944 l -4.87347,3.30723 2.21836,-4.30723 c 6.58071,-12.77729 14.92376,-18.30723 27.62024,-18.30723 13.30923,0 20.86955,5.20116 20.86955,14.35728 0,5.97886 -5.01695,10.97606 -11.01941,10.97606 -2.46068,0 -8.73668,-2.1 -13.94667,-4.66667 z m 168.32227,2.49904 c -3.05684,-3.05684 -2.04943,-8.76011 1.8927,-10.71519 3.7661,-1.86776 7.23752,-0.52435 9.48198,3.66945 3.38618,6.32715 -6.17244,12.24798 -11.37468,7.04574 z M 177.61667,131.75 c -2.18767,-2.18766 -2.03298,-4.41131 0.45025,-6.4722 2.9566,-2.45377 7.2316,1.69888 5.14856,5.00119 -1.87269,2.96883 -3.63736,3.43246 -5.59881,1.47101 z m 12.54846,-0.46714 c -0.45596,-1.18822 0.0824,-2.38404 1.28031,-2.84371 2.48981,-0.95543 5.21429,1.41469 3.95969,3.44467 -1.30837,2.11699 -4.33001,1.77045 -5.24,-0.60096 z m 414.42974,0.60096 c -1.2546,-2.02998 1.46988,-4.4001 3.95969,-3.44467 1.19788,0.45967 1.73627,1.65549 1.28031,2.84371 -0.90999,2.37141 -3.93163,2.71795 -5.24,0.60096 z m 13.0218,-0.13382 c -2.18767,-2.18766 -2.03298,-4.41131 0.45025,-6.4722 2.9566,-2.45377 7.2316,1.69888 5.14856,5.00119 -1.87269,2.96883 -3.63736,3.43246 -5.59881,1.47101 z m -331.53095,-4.6925 c -0.72357,-1.90026 -0.57043,-2.05341 0.7464,-0.74639 0.91123,0.90445 1.32089,1.98032 0.91037,2.39084 -0.41052,0.41052 -1.15606,-0.32948 -1.65677,-1.64445 z M 512,128.07869 c 0,-0.69006 0.59313,-1.62122 1.31807,-2.06925 0.75581,-0.46712 0.97933,0.0681 0.52401,1.25464 C 512.95569,129.57397 512,129.9966 512,128.07869 Z m -113.75,-0.9398 c -1.88736,-1.88736 -0.81937,-4.47222 1.84776,-4.47222 1.86396,0 2.62401,0.72406 2.33333,2.22284 -0.47592,2.45397 -2.752,3.67848 -4.18109,2.24938 z m -105.57389,-7.12362 c -0.46712,-0.75581 0.0681,-0.97934 1.25464,-0.52401 2.30989,0.88639 2.73252,1.84207 0.81461,1.84207 -0.69005,0 -1.62123,-0.59312 -2.06925,-1.31806 z M 504,120.80932 c 0,-0.28821 0.93116,-0.88134 2.06925,-1.31806 1.18656,-0.45533 1.72176,-0.2318 1.25464,0.52401 C 506.54088,121.28221 504,121.8892 504,120.80932 Z m -220.53792,-1.93435 c -0.4614,-0.74655 -0.1892,-1.75892 0.60488,-2.24969 2.04997,-1.26695 3.37263,0.46847 1.66131,2.17979 -0.95758,0.95757 -1.70336,0.98058 -2.26619,0.0699 z m 230.49653,-0.27526 c -1.26694,-2.04998 0.46847,-3.37263 2.17979,-1.66131 0.95757,0.95757 0.98057,1.70337 0.0699,2.26619 -0.74656,0.4614 -1.75892,0.1892 -2.2497,-0.60488 z m -280.0709,-3.25746 c -2.72458,-2.72457 -3.06604,-3.80718 -1.89248,-6 1.69905,-3.17471 4.37265,-3.44545 6.67144,-0.67558 1.1468,1.38181 1.19726,2 0.16325,2 -0.82312,0 -1.49659,-0.72858 -1.49659,-1.61905 0,-1.08332 -0.67798,-0.94106 -2.04898,0.42994 -3.51662,3.51661 0.54105,8.86238 5.33156,7.02409 3.1086,-1.19289 3.74204,-5.50898 1.47534,-10.05268 -2.07844,-4.16632 -2.07402,-4.18002 0.57378,-1.78378 1.59136,1.44015 2.6683,4.10724 2.6683,6.60813 0,7.76155 -5.71965,9.7949 -11.44562,4.06893 z m 322.37896,1.72442 c -2.53623,-2.53623 -1.91931,-9.69773 1.0683,-12.40148 2.6478,-2.39624 2.65222,-2.38254 0.57378,1.78378 -2.2667,4.5437 -1.63326,8.85979 1.47534,10.05268 4.79051,1.83829 8.84818,-3.50748 5.33156,-7.02409 -1.371,-1.371 -2.04898,-1.51326 -2.04898,-0.42994 0,0.89047 -0.67347,1.61905 -1.49659,1.61905 -1.03401,0 -0.98355,-0.61819 0.16325,-2 2.29879,-2.76987 4.97239,-2.49913 6.67144,0.67558 1.17356,2.19282 0.8321,3.27543 -1.89248,6 -3.60406,3.60407 -7.31586,4.25417 -9.84562,1.72442 z m -245.6,-3.73334 c 1.1,-0.71087 2.6,-1.2925 3.33333,-1.2925 0.73333,0 0.43333,0.58163 -0.66667,1.2925 -1.1,0.71088 -2.6,1.2925 -3.33333,1.2925 -0.73333,0 -0.43333,-0.58162 0.66667,-1.2925 z m 42.97678,-1.85183 c -0.874,-1.91819 -3.5513,-4.71879 -5.9496,-6.22354 -3.58226,-2.24762 -5.70296,-2.59514 -11.88214,-1.94714 C 327.68536,104.16301 324,102.29798 324,97.333333 c 0,-9.569754 16.7002,-8.346752 24.40264,1.787074 4.28491,5.637503 7.86736,12.736273 7.2946,14.454543 -0.2556,0.76679 -1.1798,-0.17526 -2.05379,-2.09345 z m 90.36154,2.11895 c -0.007,-2.3192 3.65009,-9.29332 7.59237,-14.480043 C 459.2998,88.986581 476,87.763579 476,97.333333 c 0,4.923177 -3.74533,6.890367 -11.31733,5.944307 -8.44103,-1.05463 -14.18927,1.42252 -18.06998,7.78709 -1.4315,2.34773 -2.60497,3.48881 -2.6077,2.53572 z m 42.66168,-0.26712 c -1.1,-0.71087 -1.4,-1.2925 -0.66667,-1.2925 0.73333,0 2.23333,0.58163 3.33333,1.2925 1.1,0.71088 1.4,1.2925 0.66667,1.2925 -0.73333,0 -2.23333,-0.58162 -3.33333,-1.2925 z M 361,107.8932 c -2.67847,-1.56006 -3.09113,-6.60206 -0.73333,-8.959867 5.17866,-5.178665 13.315,2.302317 8.4049,7.727917 -2.69601,2.97906 -4.24492,3.22779 -7.67157,1.23195 z m 70.32843,-1.23195 c -4.9101,-5.4256 3.22624,-12.906582 8.4049,-7.727917 2.4495,2.449497 1.90382,7.476917 -0.97901,9.019757 -3.61635,1.93541 -4.67137,1.75187 -7.42589,-1.29184 z m -138.35066,-4.16003 c 0.90446,-0.91123 1.98032,-1.3209 2.39084,-0.91038 0.41052,0.41051 -0.32948,1.15606 -1.64444,1.65677 -1.90026,0.72358 -2.05341,0.57043 -0.7464,-0.74639 z m 79.84366,-4.536935 c -2.575,-2.575002 -2.67282,-3.579566 -0.55476,-5.697618 3.94966,-3.949663 9.7909,0.173329 6.85026,4.835205 -1.9121,3.031338 -3.85977,3.298148 -6.2955,0.862413 z M 421.6,98.4 c -3.94967,-3.949663 0.17333,-9.790908 4.8352,-6.850272 3.03135,1.912119 3.29815,3.859779 0.86241,6.295511 -2.575,2.575001 -3.57956,2.672811 -5.69761,0.554761 z M 378.77068,86.125324 c -1.87983,-2.265043 -0.88001,-4.791991 1.89599,-4.791991 2.88697,0 3.84568,2.725754 1.70989,4.861534 -1.6964,1.696402 -2.14749,1.687704 -3.60588,-0.06955 z m 38.66667,0 c -1.87983,-2.265043 -0.88002,-4.791991 1.89598,-4.791991 2.88698,0 3.84568,2.725754 1.7099,4.861534 -1.6964,1.696402 -2.1475,1.687704 -3.60588,-0.06955 z m -39.3804,-10.033193 c -0.42192,-0.682662 -0.15732,-1.618071 0.58797,-2.07869 0.74529,-0.460617 1.35508,0.09792 1.35508,1.241203 0,2.342035 -0.80008,2.686879 -1.94305,0.837487 z M 420,75.254644 c 0,-1.143279 0.60979,-1.70182 1.35508,-1.241203 0.74529,0.460619 1.00989,1.396028 0.58797,2.07869 C 420.80008,77.941523 420,77.596679 420,75.254644 Z m -53.33333,-4.167995 c -1.83334,-0.292002 -4.53334,-1.059277 -6,-1.705053 -1.46667,-0.645776 -4.27668,-1.522211 -6.24447,-1.947632 -3.51827,-0.760623 -6.01504,-4.856691 -4.47719,-7.344996 1.3475,-2.180299 12.14756,-3.156705 15.438,-1.395713 2.72223,1.45689 2.91191,1.370614 1.916,-0.871476 -0.60793,-1.368646 -1.34906,-5.223362 -1.64694,-8.566035 -0.59088,-6.630453 1.60481,-9.968861 5.55868,-8.451621 2.5994,0.997482 7.45592,10.450724 7.45592,14.512982 0,1.548926 0.69457,3.510799 1.54349,4.359719 1.72965,1.729653 -0.62415,5.656509 -3.39059,5.656509 -0.8363,0 -2.11284,1.311184 -2.83673,2.913743 -1.46015,3.232484 -2.44628,3.615223 -7.31617,2.839573 z m 61.49064,-0.796005 c -0.81986,-0.819853 -1.49064,-2.200665 -1.49064,-3.068469 0,-0.867803 -1.19698,-1.89084 -2.65994,-2.273414 -3.10921,-0.813078 -5.24734,-5.201889 -2.91328,-5.979912 0.86527,-0.288422 1.57322,-1.982546 1.57322,-3.764718 0,-1.782174 0.69325,-4.582174 1.54057,-6.222223 0.84731,-1.640049 1.9374,-3.841809 2.42244,-4.8928 0.48503,-1.050991 1.92691,-2.550991 3.20419,-3.333333 5.07486,-3.1084 8.19638,7.988516 4.33096,15.396422 -1.79592,3.441808 -1.77392,3.468616 1.7535,2.13716 4.15496,-1.568324 12.50554,-0.325094 14.57639,2.170127 C 452.51483,62.893563 448.69745,68 444.85773,68 c -1.64509,0 -3.56106,0.521857 -4.25773,1.159684 -2.12371,1.944344 -10.83729,2.736353 -12.44269,1.13096 z"
     id="path62"
     inkscape:connector-curvature="0" />
</svg>
